<?xml version="1.0" encoding="iso-8859-1"?>
<!-- Generator: Adobe Illustrator 19.1.0, SVG Export Plug-In . SVG Version: 6.00 Build 0)  -->
<svg version="1.1" id="Capa_1" xmlns="http://www.w3.org/2000/svg" xmlns:xlink="http://www.w3.org/1999/xlink" x="0px" y="0px"
	 viewBox="0 0 416.991 416.991" style="enable-background:new 0 0 416.991 416.991;" xml:space="preserve">
<path style="fill:#FFFFFF;" d="M208.499,169.087c-2.512,0-4.966,0.246-7.348,0.697c0.645-0.03,1.293-0.049,1.945-0.049
	c22.552,0,40.834,18.282,40.834,40.834c0,12.727-5.824,24.093-14.951,31.581c11.34-6.926,18.926-19.42,18.926-33.653
	C247.904,186.767,230.227,169.087,208.499,169.087z"/>
<g>
	<g>
		<path style="fill:#F24646;" d="M243.929,210.57c0-22.552-18.282-40.834-40.834-40.834c-0.652,0-1.3,0.019-1.945,0.049
			c-18.23,3.453-32.063,19.494-32.063,38.714c0,21.728,17.68,39.405,39.411,39.405c7.495,0,14.508-2.105,20.479-5.753
			C238.105,234.662,243.929,223.297,243.929,210.57z"/>
		<path style="fill:#D4B783;" d="M308.568,333.451c-0.269-2.956,0.789-5.879,2.888-7.977c2.1-2.098,5.021-3.154,7.978-2.888
			c1.196,0.109,2.413,0.165,3.618,0.165c14.272,0,27.561-7.661,34.682-19.995c7.769-13.457,6.995-30.367-1.973-43.081
			c-1.711-2.425-2.255-5.485-1.487-8.353c0.769-2.867,2.771-5.244,5.465-6.489c14.126-6.526,23.253-20.784,23.253-36.324
			c0-15.538-9.126-29.795-23.25-36.322c-2.694-1.246-4.696-3.623-5.464-6.49c-0.768-2.867-0.223-5.927,1.488-8.352
			c8.97-12.714,9.746-29.626,1.976-43.084c-7.121-12.333-20.41-19.996-34.682-19.996c-1.203,0-2.418,0.055-3.614,0.164
			c-2.962,0.267-5.878-0.79-7.977-2.888c-2.099-2.099-3.157-5.021-2.888-7.977c1.411-15.496-6.374-30.53-19.831-38.3
			c-4.039-2.332-8.443-3.915-12.985-4.727c-5.767,1.039-11.316,3.324-16.095,6.695c-2.425,1.71-5.485,2.256-8.353,1.487
			c-1.624-0.435-3.08-1.277-4.273-2.406c-0.464,0.299-0.923,0.606-1.374,0.924c-2.425,1.71-5.485,2.256-8.352,1.487
			c-2.867-0.768-5.244-2.771-6.489-5.465c-5.532-11.973-16.625-20.331-29.339-22.608c-12.7,2.284-23.78,10.636-29.308,22.598
			c-1.245,2.694-3.623,4.696-6.49,5.464c-2.868,0.768-5.928,0.223-8.353-1.488c-0.449-0.316-0.905-0.622-1.366-0.919
			c-1.194,1.132-2.654,1.976-4.281,2.412c-2.868,0.768-5.928,0.223-8.352-1.488c-4.789-3.378-10.35-5.666-16.13-6.702
			c-4.531,0.813-8.924,2.395-12.954,4.721c-13.457,7.769-21.241,22.8-19.832,38.295c0.269,2.956-0.789,5.878-2.888,7.977
			c-2.099,2.099-5.014,3.154-7.978,2.888c-1.197-0.109-2.414-0.165-3.617-0.165c-14.272,0-27.562,7.662-34.683,19.996
			c-7.769,13.456-6.995,30.366,1.973,43.081c1.71,2.425,2.255,5.485,1.487,8.352c-0.769,2.867-2.771,5.245-5.465,6.489
			C29.127,178.69,20,192.948,20,208.488c0,15.538,9.126,29.795,23.25,36.322c2.694,1.245,4.696,3.623,5.464,6.49
			c0.768,2.867,0.223,5.927-1.488,8.353c-8.97,12.715-9.746,29.626-1.976,43.084c7.121,12.333,20.41,19.996,34.682,19.996
			c1.203,0,2.418-0.055,3.614-0.164c2.959-0.266,5.878,0.789,7.977,2.888c2.099,2.099,3.157,5.022,2.888,7.978
			c-1.411,15.497,6.373,30.53,19.831,38.3c4.039,2.332,8.443,3.915,12.985,4.726c5.768-1.039,11.316-3.324,16.095-6.695
			c1.704-1.202,3.721-1.828,5.764-1.828c0.865,0,1.735,0.112,2.588,0.341c1.624,0.435,3.081,1.277,4.274,2.406
			c0.464-0.299,0.923-0.605,1.375-0.924c1.704-1.202,3.721-1.828,5.764-1.828c0.865,0,1.735,0.112,2.588,0.341
			c2.867,0.769,5.245,2.771,6.489,5.465c5.532,11.973,16.626,20.331,29.339,22.608c12.7-2.284,23.78-10.636,29.308-22.598
			c1.245-2.694,3.623-4.696,6.49-5.464c2.868-0.768,5.928-0.223,8.352,1.488c0.448,0.316,0.905,0.622,1.366,0.919
			c1.194-1.132,2.654-1.976,4.282-2.412c2.868-0.768,5.928-0.223,8.353,1.488c4.789,3.379,10.35,5.666,16.13,6.703
			c4.531-0.813,8.924-2.395,12.953-4.721C302.192,363.978,309.977,348.946,308.568,333.451z M314.53,201.077
			c1.984-1.983,4.621-3.076,7.425-3.076s5.441,1.092,7.424,3.075c4.094,4.095,4.094,10.756,0.001,14.85
			c-1.984,1.983-4.621,3.076-7.425,3.076s-5.441-1.092-7.424-3.075C310.438,211.831,310.438,205.17,314.53,201.077z M102.46,215.915
			c-1.992,1.986-4.625,3.075-7.425,3.075c-2.8,0-5.433-1.089-7.416-3.066c-4.103-4.103-4.103-10.764-0.01-14.858
			c1.984-1.983,4.621-3.076,7.425-3.076c2.804,0,5.441,1.092,7.424,3.075C106.554,205.16,106.554,211.821,102.46,215.915z
			 M141.626,107.521c1.236-4.592,5.406-7.787,10.144-7.787c0.915,0,1.828,0.12,2.713,0.356c2.709,0.723,4.977,2.462,6.381,4.895
			c1.404,2.433,1.775,5.267,1.044,7.979c-1.221,4.567-5.392,7.77-10.138,7.77c-0.92,0-1.837-0.121-2.726-0.36
			c-2.699-0.722-4.965-2.46-6.369-4.892C141.275,113.055,140.903,110.228,141.626,107.521z M154.49,316.892
			c-0.901,0.241-1.813,0.361-2.729,0.361c-4.747,0-8.918-3.203-10.143-7.788c-1.499-5.577,1.826-11.348,7.414-12.852
			c0.901-0.241,1.814-0.361,2.729-0.361c4.747,0,8.918,3.203,10.144,7.788C163.396,309.626,160.069,315.39,154.49,316.892z
			 M208.499,267.904c-32.759,0-59.411-26.649-59.411-59.405c0-32.759,26.652-59.411,59.411-59.411
			c32.756,0,59.405,26.652,59.405,59.411C267.904,241.255,241.255,267.904,208.499,267.904z M275.365,309.47
			c-1.236,4.591-5.406,7.787-10.143,7.787h-0.001c-0.921,0-1.84-0.122-2.73-0.361c-2.692-0.718-4.96-2.457-6.364-4.89
			c-1.404-2.433-1.775-5.266-1.045-7.978c1.221-4.568,5.393-7.771,10.139-7.771c0.914,0,1.826,0.12,2.709,0.355
			c2.716,0.726,4.982,2.465,6.386,4.897C275.716,303.936,276.088,306.764,275.365,309.47z M274.321,115.493
			c-1.4,2.423-3.66,4.158-6.362,4.885c-0.901,0.241-1.813,0.361-2.729,0.361h-0.001c-4.746,0-8.917-3.203-10.143-7.788
			c-1.494-5.595,1.84-11.361,7.431-12.856c0.874-0.235,1.793-0.356,2.713-0.356c4.749,0,8.92,3.204,10.145,7.792
			C276.1,110.224,275.728,113.059,274.321,115.493z"/>
	</g>
	<g>
		<path d="M416.991,208.503c0-19.645-9.72-37.923-25.456-49.042c8.07-17.498,7.35-38.19-2.473-55.206
			c-9.771-16.924-27.278-27.984-46.567-29.748c-1.761-19.188-12.73-36.747-29.745-46.57c-9.112-5.261-19.464-8.042-29.936-8.042
			c-8.826,0-17.404,1.899-25.274,5.552C246.42,9.716,228.145,0,208.503,0c-19.639,0-37.912,9.716-49.033,25.441
			c-7.872-3.654-16.452-5.554-25.28-5.554c-10.472,0-20.823,2.781-29.935,8.042c-17.013,9.821-27.982,27.377-29.745,46.563
			c-19.293,1.761-36.801,12.822-46.573,29.748c-9.823,17.013-10.544,37.703-2.476,55.2C9.723,170.561,0,188.84,0,208.488
			c0,19.646,9.72,37.923,25.456,49.043c-8.071,17.499-7.351,38.19,2.473,55.206c9.771,16.924,27.278,27.984,46.567,29.748
			c1.761,19.188,12.73,36.747,29.745,46.57c9.112,5.261,19.464,8.042,29.935,8.042c8.826,0,17.404-1.899,25.275-5.552
			c11.12,15.73,29.395,25.447,49.036,25.447c19.639,0,37.912-9.715,49.032-25.441c7.873,3.654,16.453,5.554,25.281,5.554
			c10.472,0,20.823-2.781,29.935-8.042c17.012-9.822,27.982-27.378,29.744-46.564c19.291-1.761,36.801-12.822,46.573-29.747
			c9.823-17.014,10.544-37.703,2.476-55.2C407.268,246.431,416.991,228.151,416.991,208.503z M373.738,244.828
			c-2.694,1.245-4.696,3.623-5.465,6.489c-0.768,2.867-0.224,5.927,1.487,8.353c8.968,12.714,9.742,29.625,1.973,43.081
			c-7.121,12.334-20.41,19.996-34.682,19.995c-1.205,0-2.421-0.056-3.618-0.165c-2.957-0.267-5.878,0.79-7.978,2.888
			c-2.099,2.099-3.157,5.021-2.888,7.977c1.409,15.495-6.376,30.527-19.832,38.296c-6.076,3.508-12.97,5.362-19.935,5.362
			c-2.352,0-4.702-0.22-7.018-0.636c-5.78-1.036-11.342-3.324-16.13-6.703c-2.425-1.71-5.485-2.256-8.353-1.488
			c-1.627,0.436-3.087,1.28-4.282,2.412c-0.91,0.862-1.67,1.887-2.208,3.052c-6.527,14.124-20.784,23.25-36.322,23.25
			c-2.368,0-4.7-0.236-6.986-0.646c-12.714-2.277-23.807-10.634-29.339-22.608c-1.245-2.694-3.622-4.696-6.489-5.465
			c-0.853-0.228-1.723-0.341-2.588-0.341c-2.043,0-4.061,0.626-5.764,1.828c-0.451,0.318-0.91,0.625-1.375,0.924
			c-6.439,4.144-14.105,6.412-21.771,6.412c-2.335,0-4.659-0.227-6.95-0.636c-4.543-0.811-8.946-2.395-12.985-4.726
			c-13.458-7.77-21.242-22.804-19.831-38.3c0.269-2.956-0.789-5.879-2.888-7.978c-2.099-2.099-5.018-3.154-7.977-2.888
			c-1.195,0.109-2.411,0.164-3.614,0.164c-14.272,0-27.561-7.662-34.682-19.996c-7.77-13.458-6.994-30.369,1.976-43.084
			c1.711-2.425,2.256-5.485,1.488-8.353c-0.768-2.867-2.77-5.245-5.464-6.49C29.126,238.283,20,224.026,20,208.488
			c0-15.54,9.127-29.798,23.253-36.325c2.694-1.245,4.696-3.622,5.465-6.489c0.768-2.867,0.223-5.927-1.487-8.352
			c-8.968-12.714-9.742-29.624-1.973-43.081c7.121-12.334,20.41-19.996,34.683-19.996c1.204,0,2.42,0.055,3.617,0.165
			c2.963,0.266,5.879-0.789,7.978-2.888c2.099-2.099,3.157-5.021,2.888-7.977c-1.409-15.495,6.375-30.527,19.832-38.295
			c4.03-2.327,8.422-3.908,12.954-4.721c2.301-0.413,4.636-0.641,6.982-0.641c7.67,0,15.34,2.271,21.782,6.419
			c0.462,0.297,0.918,0.603,1.366,0.919c2.424,1.71,5.484,2.255,8.353,1.488c2.867-0.768,5.245-2.77,6.49-5.464
			c5.528-11.962,16.608-20.314,29.308-22.598c2.295-0.413,4.637-0.651,7.015-0.651c15.54,0,29.798,9.127,36.324,23.253
			c0.54,1.168,1.303,2.196,2.216,3.059c1.193,1.129,2.65,1.97,4.273,2.406c2.868,0.769,5.927,0.223,8.353-1.487
			c4.779-3.371,10.328-5.656,16.095-6.695c2.327-0.419,4.688-0.641,7.05-0.641c6.966,0,13.859,1.854,19.936,5.363
			c13.457,7.77,21.242,22.804,19.831,38.3c-0.269,2.956,0.789,5.879,2.888,7.978c2.099,2.098,5.015,3.155,7.977,2.888
			c1.195-0.109,2.411-0.164,3.614-0.164c14.272,0,27.561,7.662,34.682,19.996c7.77,13.458,6.994,30.37-1.976,43.084
			c-1.711,2.425-2.256,5.485-1.488,8.352c0.768,2.867,2.77,5.245,5.464,6.49c14.124,6.527,23.249,20.785,23.249,36.322
			C396.991,224.044,387.864,238.301,373.738,244.828z"/>
		<path d="M321.956,219.001c2.804,0,5.441-1.092,7.425-3.076c4.093-4.094,4.093-10.755-0.001-14.85
			c-1.983-1.982-4.62-3.075-7.424-3.075s-5.441,1.092-7.425,3.076c-4.093,4.094-4.093,10.755,0.001,14.85
			C316.515,217.909,319.151,219.001,321.956,219.001z"/>
		<path d="M265.23,99.739c-0.921,0-1.839,0.121-2.713,0.356c-5.591,1.495-8.924,7.261-7.431,12.856
			c1.226,4.585,5.397,7.788,10.143,7.788h0.001c0.915,0,1.828-0.12,2.729-0.361c2.702-0.728,4.962-2.462,6.362-4.885
			c1.407-2.434,1.779-5.27,1.054-7.962C274.15,102.943,269.979,99.739,265.23,99.739z"/>
		<path d="M149.044,120.374c0.889,0.239,1.806,0.36,2.726,0.36c4.746,0,8.917-3.203,10.138-7.77c0.73-2.712,0.36-5.546-1.044-7.979
			c-1.404-2.433-3.672-4.171-6.381-4.895c-0.885-0.236-1.797-0.356-2.713-0.356c-4.738,0-8.907,3.195-10.144,7.787
			c-0.724,2.706-0.351,5.534,1.049,7.961C144.079,117.914,146.346,119.652,149.044,120.374z"/>
		<path d="M95.036,197.99c-2.804,0-5.441,1.092-7.425,3.076c-4.093,4.094-4.093,10.755,0.01,14.858
			c1.982,1.977,4.616,3.066,7.416,3.066c2.8,0,5.433-1.089,7.425-3.075c4.094-4.094,4.094-10.755,0-14.851
			C100.477,199.083,97.84,197.99,95.036,197.99z"/>
		<path d="M151.761,296.252c-0.915,0-1.828,0.12-2.729,0.361c-5.588,1.504-8.913,7.275-7.414,12.852
			c1.226,4.585,5.397,7.788,10.143,7.788c0.916,0,1.828-0.12,2.729-0.361c5.579-1.502,8.906-7.266,7.415-12.852
			C160.679,299.455,156.508,296.252,151.761,296.252z"/>
		<path d="M267.93,296.613c-0.883-0.236-1.795-0.355-2.709-0.355c-4.746,0-8.918,3.203-10.139,7.771
			c-0.73,2.712-0.359,5.545,1.045,7.978c1.404,2.433,3.672,4.171,6.364,4.89c0.89,0.24,1.809,0.361,2.73,0.361h0.001
			c4.737,0,8.907-3.196,10.143-7.787c0.724-2.707,0.351-5.534-1.049-7.961C272.912,299.078,270.646,297.339,267.93,296.613z"/>
		<path d="M208.499,149.087c-32.759,0-59.411,26.652-59.411,59.411c0,32.756,26.652,59.405,59.411,59.405
			c32.756,0,59.405-26.649,59.405-59.405C267.904,175.739,241.255,149.087,208.499,149.087z M228.978,242.151
			c-5.972,3.648-12.984,5.753-20.479,5.753c-21.731,0-39.411-17.677-39.411-39.405c0-19.22,13.833-35.26,32.063-38.714
			c2.382-0.451,4.837-0.697,7.348-0.697c21.728,0,39.405,17.68,39.405,39.411C247.904,222.731,240.318,235.225,228.978,242.151z"/>
	</g>
</g>
<g>
</g>
<g>
</g>
<g>
</g>
<g>
</g>
<g>
</g>
<g>
</g>
<g>
</g>
<g>
</g>
<g>
</g>
<g>
</g>
<g>
</g>
<g>
</g>
<g>
</g>
<g>
</g>
<g>
</g>
</svg>
