<?xml version="1.0" encoding="iso-8859-1"?>
<!-- Generator: Adobe Illustrator 19.1.0, SVG Export Plug-In . SVG Version: 6.00 Build 0)  -->
<svg version="1.1" id="Capa_1" xmlns="http://www.w3.org/2000/svg" xmlns:xlink="http://www.w3.org/1999/xlink" x="0px" y="0px"
	 viewBox="0 0 394.182 394.182" style="enable-background:new 0 0 394.182 394.182;" xml:space="preserve">
<g>
	<g>
		<path style="fill:#89634A;" d="M82.364,269.455v6.953v97.774h96.148h8.58V269.455H82.364z M172.091,321.819
			c0,5.523-4.478,10-10,10c-5.523,0-10-4.477-10-10v-17.364h-34.728v34.728h17.364c5.522,0,10,4.477,10,10c0,5.523-4.478,10-10,10
			h-27.364c-5.522,0-10-4.477-10-10v-54.728c0-5.523,4.478-10,10-10h54.728c5.522,0,10,4.477,10,10V321.819z"/>
		<path style="fill:#89634A;" d="M187.091,249.455V144.727H82.364v8.745v95.983h96.148H187.091z M172.091,197.091
			c0,5.523-4.478,10-10,10c-5.523,0-10-4.477-10-10v-17.364h-34.728v34.728h17.364c5.522,0,10,4.477,10,10c0,5.523-4.478,10-10,10
			h-27.364c-5.522,0-10-4.477-10-10v-54.728c0-5.523,4.478-10,10-10h54.728c5.522,0,10,4.477,10,10V197.091z"/>
		<path style="fill:#89634A;" d="M187.091,124.727V30.536H82.364v94.191h96.148H187.091z M172.091,72.364c0,5.523-4.478,10-10,10
			c-5.523,0-10-4.477-10-10V55h-34.728v34.727h17.364c5.522,0,10,4.477,10,10c0,5.523-4.478,10-10,10h-27.364
			c-5.522,0-10-4.477-10-10V45c0-5.523,4.478-10,10-10h54.728c5.522,0,10,4.477,10,10V72.364z"/>
		<path style="fill:#89634A;" d="M207.091,269.455v6.953v97.774h95.061V269.455H207.091z M296.819,321.819c0,5.523-4.478,10-10,10
			c-5.522,0-10-4.477-10-10v-17.364h-34.728v34.728h17.363c5.522,0,10,4.477,10,10c0,5.523-4.478,10-10,10h-27.363
			c-5.523,0-10-4.477-10-10v-54.728c0-5.523,4.477-10,10-10h54.728c5.522,0,10,4.477,10,10V321.819z"/>
		<path style="fill:#89634A;" d="M207.091,144.727v8.745v95.983h95.061V144.727H207.091z M296.819,197.091c0,5.523-4.478,10-10,10
			c-5.522,0-10-4.477-10-10v-17.364h-34.728v34.728h17.363c5.522,0,10,4.477,10,10c0,5.523-4.478,10-10,10h-27.363
			c-5.523,0-10-4.477-10-10v-54.728c0-5.523,4.477-10,10-10h54.728c5.522,0,10,4.477,10,10V197.091z"/>
		<path style="fill:#89634A;" d="M246.549,65.034c0,0-1.848-1.911-4.458-6.919v31.613h17.363c5.522,0,10,4.477,10,10
			c0,5.523-4.478,10-10,10h-27.363c-5.523,0-10-4.477-10-10V45c0-5.523,4.477-10,10-10h1.999c-0.276-1.475-0.522-2.96-0.712-4.464
			h-26.288v94.191h95.061V98.918C279.085,96.045,259.078,83.271,246.549,65.034z"/>
	</g>
	<g>
		<path d="M162.091,35h-54.728c-5.522,0-10,4.477-10,10v54.727c0,5.523,4.478,10,10,10h27.364c5.522,0,10-4.477,10-10
			c0-5.523-4.478-10-10-10h-17.364V55h34.728v17.364c0,5.523,4.477,10,10,10c5.522,0,10-4.477,10-10V45
			C172.091,39.477,167.614,35,162.091,35z"/>
		<path d="M162.091,159.727h-54.728c-5.522,0-10,4.477-10,10v54.728c0,5.523,4.478,10,10,10h27.364c5.522,0,10-4.477,10-10
			c0-5.523-4.478-10-10-10h-17.364v-34.728h34.728v17.364c0,5.523,4.477,10,10,10c5.522,0,10-4.477,10-10v-27.364
			C172.091,164.204,167.614,159.727,162.091,159.727z"/>
		<path d="M286.819,159.727h-54.728c-5.523,0-10,4.477-10,10v54.728c0,5.523,4.477,10,10,10h27.363c5.522,0,10-4.477,10-10
			c0-5.523-4.478-10-10-10h-17.363v-34.728h34.728v17.364c0,5.523,4.478,10,10,10c5.522,0,10-4.477,10-10v-27.364
			C296.819,164.204,292.341,159.727,286.819,159.727z"/>
		<path d="M162.091,284.455h-54.728c-5.522,0-10,4.477-10,10v54.728c0,5.523,4.478,10,10,10h27.364c5.522,0,10-4.477,10-10
			c0-5.523-4.478-10-10-10h-17.364v-34.728h34.728v17.364c0,5.523,4.477,10,10,10c5.522,0,10-4.477,10-10v-27.364
			C172.091,288.932,167.614,284.455,162.091,284.455z"/>
		<path d="M286.819,284.455h-54.728c-5.523,0-10,4.477-10,10v54.728c0,5.523,4.477,10,10,10h27.363c5.522,0,10-4.477,10-10
			c0-5.523-4.478-10-10-10h-17.363v-34.728h34.728v17.364c0,5.523,4.478,10,10,10c5.522,0,10-4.477,10-10v-27.364
			C296.819,288.932,292.341,284.455,286.819,284.455z"/>
		<path d="M321.819,70c-33.084,0-60-26.916-60-60c0-5.523-4.478-10-10-10H72.364c-5.522,0-10,4.477-10,10v374.182
			c0,5.523,4.478,10,10,10h249.455c5.522,0,10-4.477,10-10V80C331.819,74.477,327.341,70,321.819,70z M82.364,30.536V20h104.728
			v10.536v94.191h-8.58H82.364V30.536z M82.364,153.472v-8.745h104.728v104.728h-8.58H82.364V153.472z M178.512,374.182H82.364
			v-97.774v-6.953h104.728v104.728H178.512z M311.819,374.182h-9.667h-95.061v-97.774v-6.953h95.061h9.667V374.182z
			 M311.819,249.455h-9.667h-95.061v-95.983v-8.745h95.061h9.667V249.455z M311.819,124.727h-9.667h-95.061V30.536V20h35.35
			c0.648,5.17,1.807,10.182,3.396,15h-11.746h-1.999c-5.523,0-10,4.477-10,10v54.727c0,5.523,4.477,10,10,10h27.363
			c5.522,0,10-4.477,10-10c0-5.523-4.478-10-10-10h-17.363V58.115V55h13.635c12.639,18.502,32.822,31.463,56.092,34.378V124.727z"/>
	</g>
</g>
<g>
</g>
<g>
</g>
<g>
</g>
<g>
</g>
<g>
</g>
<g>
</g>
<g>
</g>
<g>
</g>
<g>
</g>
<g>
</g>
<g>
</g>
<g>
</g>
<g>
</g>
<g>
</g>
<g>
</g>
</svg>
