<?xml version="1.0" encoding="iso-8859-1"?>
<!-- Generator: Adobe Illustrator 19.1.0, SVG Export Plug-In . SVG Version: 6.00 Build 0)  -->
<svg version="1.1" id="Capa_1" xmlns="http://www.w3.org/2000/svg" xmlns:xlink="http://www.w3.org/1999/xlink" x="0px" y="0px"
	 viewBox="0 0 391.875 391.875" style="enable-background:new 0 0 391.875 391.875;" xml:space="preserve">
<g>
	<path d="M352.69,39.185c-52.247-52.246-137.258-52.246-189.505,0l-124,124c-52.246,52.247-52.246,137.259,0,189.506
		c26.124,26.123,60.438,39.185,94.752,39.185c4.637,0,9.269-0.238,13.885-0.715c0.486-0.018,0.964-0.07,1.431-0.155
		c29.045-3.314,57.207-16.085,79.436-38.315l124-124C404.936,176.443,404.936,91.432,352.69,39.185z M214.547,338.548
		c-9.821,9.822-21.129,17.608-33.403,23.197c-10.655,4.852-22.036,8.052-33.834,9.422c-55.439-0.077-100.52-45.203-100.52-100.66
		c0-26.111,12.821-49.271,32.485-63.556c12.946-9.405,28.853-14.972,46.043-14.972c33.538,0,60.822,27.285,60.822,60.822
		c0,20.809-13.696,38.475-32.544,44.471c-4.455,1.417-9.195,2.187-14.113,2.187c-19.479,0-35.327-15.848-35.327-35.326
		c0-6.43,2.327-12.325,6.178-16.896c4.821-5.722,12.033-9.366,20.083-9.366c10.481,0,19.009,8.527,19.009,19.009
		c0,3.144,1.454,5.947,3.724,7.78c1.716,1.386,3.898,2.22,6.276,2.22c5.523,0,10-4.478,10-10c0-1.465-0.088-2.909-0.246-4.333
		c-0.358-3.22-1.106-6.324-2.201-9.26c-5.53-14.827-19.83-25.416-36.561-25.416c-11.514,0-22.051,4.238-30.156,11.224
		c-9.851,8.49-16.105,21.043-16.105,35.038c0,30.507,24.819,55.326,55.327,55.326c8.466,0,16.56-1.603,24.018-4.495
		c24.918-9.661,42.64-33.874,42.64-62.164c0-44.565-36.257-80.822-80.822-80.822c-20.719,0-39.962,6.434-55.845,17.401
		c-25.764,17.79-42.683,47.518-42.683,81.127c0,15.825,3.062,30.948,8.626,44.808c-14.872-25.549-18.971-55.684-12.331-83.773
		c4.699-19.881,14.769-38.739,30.244-54.214c5.304-5.304,11.008-9.967,17.01-14.005c44.304-29.804,105.065-25.14,144.21,14.005
		C258.996,221.775,258.996,294.1,214.547,338.548z M339.308,213.768c-0.254,0.259-0.503,0.523-0.76,0.78l-74.245,74.245
		c0.695-2.96,1.28-5.94,1.772-8.933c6.776-41.194-5.679-84.969-37.385-116.675C202.566,137.061,168.252,124,133.938,124
		c-10.359,0-20.721,1.191-30.855,3.571l74.245-74.244c5.306-5.306,11.044-10.021,17.132-14.119
		c18.62-12.533,40.53-19.27,63.478-19.27c30.451,0,59.079,11.857,80.61,33.39C382.739,97.518,382.987,169.258,339.308,213.768z"/>
	<g>
		<g>
			<path style="fill:#89634A;" d="M198.304,186.41c-34.543-34.544-85.92-42.236-127.966-23.088
				c-6.003,4.038-11.707,8.701-17.01,14.005c-15.475,15.476-25.545,34.333-30.244,54.214c-6.64,28.089-2.541,58.224,12.331,83.773
				c-5.564-13.859-8.626-28.983-8.626-44.808c0-33.609,16.919-63.337,42.683-81.127c15.883-10.967,35.125-17.401,55.845-17.401
				c44.565,0,80.822,36.257,80.822,80.822c0,28.29-17.722,52.503-42.64,62.164c-7.457,2.891-15.551,4.495-24.018,4.495
				c-30.507,0-55.327-24.819-55.327-55.326c0-13.994,6.255-26.548,16.105-35.038c8.105-6.986,18.642-11.224,30.156-11.224
				c16.731,0,31.031,10.589,36.561,25.416c1.095,2.937,1.844,6.04,2.201,9.26c0.158,1.424,0.246,2.868,0.246,4.333
				c0,5.522-4.477,10-10,10c-2.378,0-4.56-0.834-6.276-2.22c-2.27-1.833-3.724-4.635-3.724-7.78
				c0-10.482-8.527-19.009-19.009-19.009c-8.05,0-15.262,3.644-20.083,9.366c-3.851,4.57-6.178,10.465-6.178,16.896
				c0,19.478,15.848,35.326,35.327,35.326c4.918,0,9.658-0.77,14.113-2.187c18.849-5.996,32.544-23.662,32.544-44.471
				c0-33.537-27.285-60.822-60.822-60.822c-17.19,0-33.096,5.567-46.043,14.972c-19.665,14.286-32.485,37.446-32.485,63.556
				c0,55.457,45.081,100.583,100.52,100.66c11.798-1.37,23.179-4.571,33.834-9.422c6.095-4.101,11.849-8.803,17.16-14.114
				C242.753,303.182,242.753,230.858,198.304,186.41z"/>
			<path style="fill:#D4B783;" d="M322.304,62.41c-21.531-21.532-50.159-33.39-80.61-33.39c-16.569,0-32.594,3.518-47.234,10.188
				c-6.088,4.098-11.827,8.814-17.132,14.119l-74.245,74.244c10.134-2.38,20.496-3.571,30.855-3.571
				c34.314,0,68.629,13.062,94.752,39.185c31.705,31.706,44.161,75.482,37.385,116.675c-0.492,2.993-1.077,5.973-1.772,8.933
				l74.245-74.245c0.257-0.258,0.506-0.521,0.76-0.78C364.979,166.916,359.674,99.779,322.304,62.41z M330.631,170.385
				c-0.005,0.009-0.01,0.018-0.016,0.028c-1.904,3.484-5.516,5.463-9.236,5.463c-1.691,0-3.405-0.409-4.991-1.271
				c-2.466-1.34-4.263-3.561-5.058-6.253c-0.794-2.69-0.493-5.529,0.848-7.993c2.767-5.08,9.152-6.968,14.235-4.207
				C331.498,158.92,333.387,165.303,330.631,170.385z M338.196,126.137c-1.902,3.494-5.516,5.478-9.241,5.478
				c-1.692,0-3.406-0.409-4.994-1.271c-2.467-1.341-4.264-3.562-5.059-6.255c-0.793-2.689-0.492-5.528,0.849-7.991
				c1.333-2.458,3.558-4.258,6.257-5.053c2.684-0.791,5.518-0.49,7.979,0.847c2.467,1.341,4.263,3.562,5.058,6.255
				C339.838,120.835,339.537,123.674,338.196,126.137z"/>
		</g>
		<path d="M339.045,118.145c-0.795-2.693-2.591-4.914-5.058-6.255c-2.46-1.337-5.294-1.638-7.979-0.847
			c-2.699,0.795-4.924,2.595-6.257,5.053c-1.341,2.463-1.642,5.302-0.849,7.991c0.795,2.693,2.591,4.914,5.059,6.255
			c1.587,0.862,3.302,1.271,4.994,1.271c3.725,0,7.339-1.983,9.241-5.478C339.537,123.674,339.838,120.835,339.045,118.145z"/>
		<path d="M326.414,156.152c-5.083-2.761-11.468-0.873-14.235,4.207c-1.341,2.464-1.642,5.303-0.848,7.993
			c0.795,2.692,2.591,4.913,5.058,6.253c1.586,0.861,3.3,1.271,4.991,1.271c3.721,0,7.332-1.979,9.236-5.463
			c0.005-0.01,0.011-0.02,0.016-0.028C333.387,165.303,331.498,158.92,326.414,156.152z"/>
	</g>
</g>
<g>
</g>
<g>
</g>
<g>
</g>
<g>
</g>
<g>
</g>
<g>
</g>
<g>
</g>
<g>
</g>
<g>
</g>
<g>
</g>
<g>
</g>
<g>
</g>
<g>
</g>
<g>
</g>
<g>
</g>
</svg>
