<?xml version="1.0" encoding="iso-8859-1"?>
<!-- Generator: Adobe Illustrator 19.1.0, SVG Export Plug-In . SVG Version: 6.00 Build 0)  -->
<svg version="1.1" id="Capa_1" xmlns="http://www.w3.org/2000/svg" xmlns:xlink="http://www.w3.org/1999/xlink" x="0px" y="0px"
	 viewBox="0 0 417.007 417.007" style="enable-background:new 0 0 417.007 417.007;" xml:space="preserve">
<g>
	<g>
		<path style="fill:#D4B783;" d="M390.508,211.756c0-102.149-83.107-185.253-185.26-185.253
			c-101.603,0-184.35,82.226-185.228,183.628c0.873,102.65,84.203,185.981,186.853,186.853
			C308.28,396.106,390.508,313.359,390.508,211.756z M205.238,383.18c-94.523,0-171.424-76.9-171.424-171.424
			c0-4.829,0.211-9.61,0.605-14.34C40.16,106.38,116.032,34.07,208.488,34.07c96.196,0,174.457,78.251,174.457,174.436
			c0,92.453-72.314,168.323-163.356,174.068C214.855,382.968,210.071,383.18,205.238,383.18z"/>
		<path style="fill:#C797FF;" d="M348.334,215.811c0-81.128-66.012-147.131-147.151-147.131
			c-79.905,0-145.135,64.032-147.08,143.479c1.919,82.259,68.474,148.813,150.733,150.732
			C284.294,360.946,348.334,295.716,348.334,215.811z M314.486,200.444l6.503-25.234c1.378-5.349,6.829-8.567,12.179-7.188
			c5.349,1.378,8.566,6.831,7.188,12.179l-6.503,25.234c-1.162,4.511-5.224,7.507-9.677,7.507c-0.826,0-1.665-0.103-2.502-0.319
			C316.326,211.244,313.108,205.792,314.486,200.444z M280.207,122.701c4.881-2.587,10.932-0.725,13.519,4.155l12.2,23.028
			c2.585,4.88,0.725,10.933-4.155,13.518c-1.492,0.791-3.095,1.166-4.673,1.166c-3.585,0-7.05-1.932-8.846-5.32l-12.2-23.028
			C273.466,131.339,275.327,125.286,280.207,122.701z M231.452,103.573l20.083-16.593c4.258-3.519,10.559-2.918,14.078,1.339
			c3.518,4.258,2.918,10.561-1.34,14.079l-20.083,16.593c-1.864,1.54-4.12,2.292-6.363,2.292c-2.88,0-5.737-1.238-7.715-3.631
			C226.594,113.394,227.194,107.091,231.452,103.573z M160.197,92.86c0.441-5.506,5.267-9.6,10.766-9.171l25.983,2.079
			c5.505,0.44,9.611,5.26,9.171,10.766c-0.419,5.234-4.796,9.203-9.958,9.203c-0.268,0-0.537-0.011-0.808-0.032l-25.983-2.079
			C163.863,103.185,159.757,98.365,160.197,92.86z M83.794,163.715c2.709-4.811,8.808-6.516,13.62-3.807l22.701,12.783
			c4.812,2.71,6.517,8.808,3.807,13.62c-1.836,3.261-5.229,5.096-8.723,5.096c-1.662,0-3.346-0.415-4.897-1.288l-22.701-12.783
			C82.789,174.625,81.084,168.527,83.794,163.715z M86.684,225.68l19.025-17.801c4.032-3.772,10.361-3.563,14.134,0.47
			c3.773,4.033,3.563,10.361-0.47,14.134l-19.025,17.801c-1.928,1.804-4.382,2.698-6.83,2.698c-2.671,0-5.336-1.064-7.304-3.168
			C82.44,235.781,82.65,229.453,86.684,225.68z M130.073,274.071l-25.753,4.035c-0.524,0.082-1.046,0.122-1.56,0.122
			c-4.84,0-9.095-3.522-9.867-8.454c-0.855-5.456,2.876-10.573,8.331-11.427l25.753-4.035c5.465-0.854,10.573,2.876,11.427,8.331
			C139.259,268.1,135.529,273.216,130.073,274.071z M138.094,143.174c-3.955,0-7.7-2.361-9.273-6.252l-9.769-24.149
			c-2.071-5.12,0.4-10.949,5.52-13.02c5.119-2.071,10.949,0.4,13.02,5.52l9.769,24.149c2.071,5.12-0.4,10.949-5.52,13.02
			C140.612,142.938,139.342,143.174,138.094,143.174z M187.963,335.585c-1.058,4.635-5.179,7.777-9.74,7.777
			c-0.737,0-1.485-0.082-2.234-0.253l-25.4-5.799c-5.384-1.229-8.753-6.59-7.524-11.975c1.23-5.384,6.593-8.755,11.975-7.523
			l25.4,5.799C185.824,324.84,189.193,330.201,187.963,335.585z M230.649,296.868l-10.347,23.92
			c-1.633,3.775-5.315,6.032-9.183,6.032c-1.325,0-2.672-0.265-3.965-0.824c-5.069-2.193-7.4-8.079-5.208-13.148l10.347-23.92
			c2.192-5.069,8.081-7.4,13.147-5.208C230.51,285.912,232.842,291.799,230.649,296.868z M201.193,272.402
			c-31.21,0-56.601-25.389-56.601-56.596c0-11.775,3.618-22.719,9.795-31.787c9.347-20.577,30.078-34.93,54.111-34.93
			c32.756,0,59.406,26.652,59.406,59.411c0,24.031-14.352,44.76-34.927,54.106C223.91,268.784,212.967,272.402,201.193,272.402z
			 M279.939,329.643c-1.065,0.362-2.149,0.534-3.215,0.534c-4.166,0-8.055-2.625-9.469-6.789l-8.374-24.673
			c-1.774-5.23,1.026-10.908,6.256-12.683c5.23-1.778,10.908,1.025,12.684,6.255l8.374,24.673
			C287.969,322.19,285.168,327.868,279.939,329.643z M302.295,270.815l-25.01-7.31c-5.301-1.549-8.342-7.103-6.793-12.404
			c1.551-5.302,7.108-8.341,12.404-6.792l25.01,7.311c5.301,1.549,8.342,7.103,6.793,12.404c-1.276,4.364-5.266,7.197-9.594,7.197
			C304.176,271.219,303.232,271.089,302.295,270.815z"/>
		<path style="fill:#FFFFFF;" d="M247.904,208.501c0-21.732-17.678-39.411-39.406-39.411c-21.731,0-39.411,17.68-39.411,39.411
			c0,21.729,17.68,39.406,39.411,39.406C230.226,247.907,247.904,230.23,247.904,208.501z"/>
	</g>
	<g>
		<path d="M208.498,0.003C93.532,0.003,0,93.537,0,208.506c0,114.966,93.532,208.498,208.498,208.498
			c114.972,0,208.509-93.532,208.509-208.498C417.007,93.537,323.47,0.003,208.498,0.003z M208.498,397.004
			c-0.543,0-1.082-0.016-1.624-0.021c-102.65-0.873-185.98-84.203-186.853-186.853c-0.005-0.542-0.021-1.081-0.021-1.624
			c0-103.941,84.56-188.503,188.498-188.503c103.945,0,188.509,84.562,188.509,188.503
			C397.007,312.444,312.443,397.004,208.498,397.004z"/>
		<path d="M382.945,208.506c0-96.185-78.261-174.436-174.457-174.436c-92.456,0-168.328,72.31-174.069,163.346
			c-0.231,3.669-0.363,7.364-0.363,11.09c0,96.182,78.249,174.431,174.431,174.431c3.73,0,7.429-0.132,11.101-0.363
			C310.631,376.829,382.945,300.959,382.945,208.506z M204.835,362.891c-82.259-1.919-148.813-68.474-150.733-150.732
			c-0.028-1.214-0.046-2.431-0.046-3.653c0-85.156,69.277-154.436,154.431-154.436c85.168,0,154.457,69.28,154.457,154.436
			c0,85.154-69.289,154.431-154.457,154.431C207.267,362.937,206.05,362.919,204.835,362.891z"/>
		<path d="M267.904,208.501c0-32.759-26.649-59.411-59.406-59.411c-24.033,0-44.764,14.353-54.111,34.93
			c-3.394,7.471-5.3,15.756-5.3,24.482c0,32.756,26.652,59.406,59.411,59.406c8.725,0,17.008-1.906,24.478-5.299
			C253.552,253.262,267.904,232.533,267.904,208.501z M169.087,208.501c0-21.732,17.68-39.411,39.411-39.411
			c21.728,0,39.406,17.68,39.406,39.411c0,21.729-17.678,39.406-39.406,39.406C186.767,247.907,169.087,230.23,169.087,208.501z"/>
		<path d="M237.827,121.282c2.243,0,4.499-0.751,6.363-2.292l20.083-16.593c4.258-3.518,4.858-9.821,1.34-14.079
			c-3.519-4.257-9.82-4.858-14.078-1.339l-20.083,16.593c-4.258,3.518-4.857,9.821-1.34,14.079
			C232.089,120.045,234.947,121.282,237.827,121.282z"/>
		<path d="M147.36,129.421l-9.769-24.149c-2.071-5.12-7.901-7.591-13.02-5.52c-5.12,2.071-7.591,7.9-5.52,13.02l9.769,24.149
			c1.574,3.892,5.319,6.252,9.273,6.252c1.249,0,2.518-0.235,3.747-0.732C146.96,140.37,149.432,134.541,147.36,129.421z"/>
		<path d="M87.601,177.335l22.701,12.783c1.551,0.874,3.236,1.288,4.897,1.288c3.494,0,6.887-1.834,8.723-5.096
			c2.71-4.812,1.005-10.91-3.807-13.62l-22.701-12.783c-4.812-2.71-10.911-1.005-13.62,3.807
			C81.084,168.527,82.789,174.625,87.601,177.335z"/>
		<path d="M277.821,292.287c-1.775-5.23-7.454-8.033-12.684-6.255c-5.229,1.775-8.03,7.453-6.256,12.683l8.374,24.673
			c1.414,4.164,5.303,6.789,9.469,6.789c1.065,0,2.149-0.172,3.215-0.534c5.23-1.775,8.03-7.453,6.256-12.683L277.821,292.287z"/>
		<path d="M288.251,159.247c1.796,3.388,5.261,5.32,8.846,5.32c1.578,0,3.181-0.375,4.673-1.166c4.88-2.585,6.74-8.638,4.155-13.518
			l-12.2-23.028c-2.587-4.88-8.638-6.742-13.519-4.155c-4.88,2.585-6.74,8.638-4.155,13.518L288.251,159.247z"/>
		<path d="M321.674,212.623c0.837,0.216,1.676,0.319,2.502,0.319c4.453,0,8.515-2.996,9.677-7.507l6.503-25.234
			c1.378-5.348-1.84-10.801-7.188-12.179c-5.35-1.379-10.801,1.839-12.179,7.188l-6.503,25.234
			C313.108,205.792,316.326,211.244,321.674,212.623z"/>
		<path d="M126.977,254.312l-25.753,4.035c-5.456,0.854-9.187,5.971-8.331,11.427c0.772,4.932,5.027,8.454,9.867,8.454
			c0.514,0,1.036-0.04,1.56-0.122l25.753-4.035c5.456-0.854,9.187-5.971,8.332-11.427
			C137.55,257.188,132.442,253.458,126.977,254.312z"/>
		<path d="M225.441,283.719c-5.066-2.192-10.955,0.139-13.147,5.208l-10.347,23.92c-2.192,5.069,0.139,10.956,5.208,13.148
			c1.293,0.56,2.64,0.824,3.965,0.824c3.867,0,7.55-2.257,9.183-6.032l10.347-23.92C232.842,291.799,230.51,285.912,225.441,283.719
			z"/>
		<path d="M180.44,323.611l-25.4-5.799c-5.382-1.232-10.745,2.139-11.975,7.523c-1.229,5.384,2.139,10.746,7.524,11.975l25.4,5.799
			c0.749,0.171,1.497,0.253,2.234,0.253c4.561,0,8.682-3.142,9.74-7.777C189.193,330.201,185.824,324.84,180.44,323.611z"/>
		<path d="M314.7,264.023c1.549-5.301-1.492-10.854-6.793-12.404l-25.01-7.311c-5.296-1.548-10.854,1.491-12.404,6.792
			c-1.549,5.301,1.492,10.854,6.793,12.404l25.01,7.31c0.937,0.274,1.881,0.404,2.811,0.404
			C309.434,271.219,313.423,268.387,314.7,264.023z"/>
		<path d="M169.368,103.626l25.983,2.079c0.271,0.021,0.541,0.032,0.808,0.032c5.161,0,9.538-3.969,9.958-9.203
			c0.44-5.505-3.665-10.325-9.171-10.766l-25.983-2.079c-5.499-0.429-10.325,3.665-10.766,9.171
			C159.757,98.365,163.863,103.185,169.368,103.626z"/>
		<path d="M100.348,240.284l19.025-17.801c4.033-3.773,4.244-10.102,0.47-14.134c-3.773-4.033-10.103-4.242-14.134-0.47
			L86.684,225.68c-4.033,3.773-4.244,10.102-0.47,14.134c1.969,2.104,4.633,3.168,7.304,3.168
			C95.966,242.982,98.419,242.089,100.348,240.284z"/>
	</g>
</g>
<g>
</g>
<g>
</g>
<g>
</g>
<g>
</g>
<g>
</g>
<g>
</g>
<g>
</g>
<g>
</g>
<g>
</g>
<g>
</g>
<g>
</g>
<g>
</g>
<g>
</g>
<g>
</g>
<g>
</g>
</svg>
