<?xml version="1.0" encoding="iso-8859-1"?>
<!-- Generator: Adobe Illustrator 19.1.0, SVG Export Plug-In . SVG Version: 6.00 Build 0)  -->
<svg version="1.1" id="Capa_1" xmlns="http://www.w3.org/2000/svg" xmlns:xlink="http://www.w3.org/1999/xlink" x="0px" y="0px"
	 viewBox="0 0 429.852 429.852" style="enable-background:new 0 0 429.852 429.852;" xml:space="preserve">
<g>
	<g>
		<path style="fill:#89634A;" d="M232.535,198.017l10.824-29.729c1.011-2.777,3.198-4.965,5.976-5.976l40.097-14.599l14.594-40.092
			c1.011-2.777,3.198-4.965,5.976-5.976l29.725-10.821l-31.327-31.327l-5.219,5.219L201.208,166.688l21.087,21.087L232.535,198.017z
			"/>
		<polygon style="fill:#4C2217;" points="52.426,315.471 48.85,319.047 47.207,320.69 24.143,343.754 78.29,397.902 
			106.574,369.618 		"/>
		<path style="fill:#F24646;" d="M248.21,241.975l-18.551-18.551c-0.111-0.106-0.22-0.215-0.326-0.326l-42.268-42.268l-7.931,7.931
			l0,0l-4.4,4.4l-10.786,10.786l-97.38,97.38l54.148,54.148l72.645-72.645l-16.204-75.003c-0.935-4.329,1.091-8.604,4.713-10.731
			c0.894-0.525,1.882-0.924,2.95-1.155c5.396-1.168,10.719,2.265,11.886,7.663l15.993,74.029l30.364-30.364
			C243.039,247.246,245.642,244.593,248.21,241.975z"/>
		<path style="fill:#89634A;" d="M355.33,106.429l-7.653,2.786l-26.454,9.63l-14.594,40.092c-1.011,2.776-3.198,4.965-5.976,5.976
			l-40.097,14.599l-12.419,34.109l7.217,7.217l107.191-107.192L355.33,106.429z"/>
		<path style="fill:#4C2217;" d="M338.535,29.362l-15.994,15.994l42.253,42.253c0.121,0.115,0.239,0.234,0.355,0.355l11.539,11.539
			l15.994-15.994L338.535,29.362z"/>
	</g>
	<path d="M426.923,79.026L350.825,2.929c-3.906-3.904-10.236-3.904-14.143,0L2.929,336.683c-3.905,3.905-3.905,10.237,0,14.143
		l76.098,76.098c1.953,1.952,4.512,2.929,7.071,2.929c2.56,0,5.118-0.977,7.071-2.929L202.502,317.59
		c1.162,1.162,2.613,2.041,4.247,2.521c3.513,1.035,7.307,0.066,9.896-2.521l60.66-60.661c3.905-3.905,3.905-10.237,0-14.142
		L426.923,93.169C430.828,89.264,430.828,82.932,426.923,79.026z M303.179,64.717l5.219-5.219l31.327,31.327l-29.725,10.821
		c-2.777,1.011-4.965,3.198-5.976,5.976l-14.594,40.092l-40.097,14.599c-2.777,1.011-4.965,3.198-5.976,5.976l-10.824,29.729
		l-10.24-10.241l-21.087-21.087L303.179,64.717z M86.098,405.709l-7.807-7.807l-54.148-54.148l23.064-23.064l1.643-1.643
		l3.576-3.576l0,0l54.148,54.148l7.807,7.807L86.098,405.709z M215.474,290.476l-2.774-12.841l-15.993-74.029
		c-1.167-5.398-6.49-8.831-11.886-7.663c-1.069,0.231-2.056,0.63-2.95,1.155c-3.622,2.126-5.648,6.401-4.713,10.731l16.204,75.003
		l2.774,12.841l-67.611,67.611l-7.807-7.807l-54.148-54.148l97.38-97.38l10.786-10.786l4.4-4.4l2.712-2.712l5.219-5.219l0,0
		l42.268,42.268c0.106,0.111,0.215,0.22,0.326,0.326l18.551,18.551l7.735,7.735c0.048,0.051,0.097,0.1,0.145,0.149L215.474,290.476z
		 M263.163,228.645l-7.807-7.807l-7.217-7.217l12.419-34.109l40.097-14.599c2.777-1.011,4.965-3.199,5.976-5.976l14.594-40.092
		l26.454-9.63l7.653-2.786l7.216,7.217l7.807,7.808L263.163,228.645z M384.496,107.311l-7.807-7.807L365.15,87.964
		c-0.116-0.121-0.234-0.24-0.355-0.355l-42.253-42.253l15.994-15.994l5.219-5.219l61.955,61.955L384.496,107.311z"/>
</g>
<g>
</g>
<g>
</g>
<g>
</g>
<g>
</g>
<g>
</g>
<g>
</g>
<g>
</g>
<g>
</g>
<g>
</g>
<g>
</g>
<g>
</g>
<g>
</g>
<g>
</g>
<g>
</g>
<g>
</g>
</svg>
