<?xml version="1.0" encoding="iso-8859-1"?>
<!-- Generator: Adobe Illustrator 19.1.0, SVG Export Plug-In . SVG Version: 6.00 Build 0)  -->
<svg version="1.1" id="Capa_1" xmlns="http://www.w3.org/2000/svg" xmlns:xlink="http://www.w3.org/1999/xlink" x="0px" y="0px"
	 viewBox="0 0 417.007 417.007" style="enable-background:new 0 0 417.007 417.007;" xml:space="preserve">
<g>
	<g>
		<path style="fill:#00CE89;" d="M303.594,99.999c-1.769-8.323-6.674-15.46-13.811-20.095c-7.137-4.634-15.651-6.21-23.975-4.443
			c-0.904,0.192-1.786,0.434-2.659,0.698c-2.917,3.143-5.225,6.892-6.72,11.11c-1.41,3.979-5.168,6.644-9.391,6.658
			c-0.011,0-0.022,0-0.034,0c-1.218,0-2.395-0.227-3.493-0.636c-2.694-1.006-4.89-3.144-5.909-5.956
			c-4.423-12.206-16.12-20.406-29.107-20.406c-8.824,0-17.045,3.792-22.801,10.047c-2.716,2.951-4.889,6.446-6.307,10.359
			c-1.435,3.958-5.194,6.593-9.401,6.593c-0.012,0-0.023,0-0.035,0c-1.187-0.004-2.334-0.224-3.406-0.618
			c-2.74-1.006-4.97-3.181-5.984-6.041c-3.74-10.551-12.497-18.236-23.424-20.559c-8.325-1.768-16.842-0.189-23.981,4.444
			c-2.214,1.438-4.213,3.118-5.971,4.999c-3.908,4.181-6.622,9.358-7.843,15.101l-43.777,205.95h289.945L303.594,99.999z
			 M165.505,248.083l-2.653,30.001c-0.46,5.201-4.825,9.12-9.949,9.12c-0.295,0-0.593-0.014-0.893-0.04
			c-5.501-0.486-9.567-5.341-9.08-10.842l2.653-30.001c0.486-5.501,5.342-9.567,10.842-9.08
			C161.927,237.728,165.992,242.582,165.505,248.083z M176.83,120.055l-7.786,88.03c-0.46,5.202-4.825,9.12-9.949,9.12
			c-0.296,0-0.593-0.014-0.893-0.04c-5.501-0.486-9.567-5.341-9.08-10.842l7.786-88.03c0.486-5.502,5.34-9.562,10.842-9.08
			C173.251,109.699,177.316,114.554,176.83,120.055z M264.981,287.164c-0.299,0.026-0.598,0.04-0.893,0.04
			c-5.125,0-9.489-3.918-9.949-9.12l-13.978-158.029c-0.486-5.501,3.578-10.355,9.08-10.842c5.502-0.49,10.356,3.578,10.842,9.08
			l13.977,158.029C274.547,281.823,270.483,286.678,264.981,287.164z"/>
		<polygon style="fill:#5B5B59;" points="55.417,317.203 57.152,325.901 62.16,351.012 342.588,351.012 350.074,317.203 		"/>
	</g>
	<g>
		<path d="M407.007,297.203h-25.136l-44.66-210.108c-2.88-13.551-10.865-25.169-22.484-32.715
			c-11.618-7.545-25.477-10.115-39.031-7.233c-11.518,2.447-21.553,8.554-28.847,17.214c-9.504-10.836-23.409-17.433-38.354-17.433
			c-14.943,0-28.85,6.598-38.354,17.432c-7.294-8.66-17.329-14.765-28.847-17.213c-13.548-2.88-27.412-0.312-39.031,7.233
			C90.645,61.926,82.66,73.544,79.779,87.095L35.12,297.203H10c-5.523,0-10,4.478-10,10c0,5.523,4.477,10,10,10h25.023l9.128,45.765
			c0.933,4.677,5.038,8.044,9.807,8.044h309.092c4.769,0,8.874-3.367,9.807-8.044l9.128-45.765h25.023c5.522,0,10-4.477,10-10
			C417.007,301.681,412.53,297.203,407.007,297.203z M99.343,91.253c1.221-5.743,3.934-10.92,7.843-15.101
			c1.758-1.881,3.756-3.56,5.971-4.999c7.139-4.634,15.656-6.212,23.981-4.444c10.927,2.322,19.684,10.008,23.424,20.559
			c1.014,2.861,3.244,5.035,5.984,6.041c1.072,0.393,2.219,0.614,3.406,0.618c0.012,0,0.023,0,0.035,0
			c4.207,0,7.967-2.635,9.401-6.593c1.418-3.913,3.59-7.408,6.307-10.359c5.756-6.255,13.977-10.047,22.801-10.047
			c12.987,0,24.685,8.2,29.107,20.406c1.019,2.813,3.215,4.951,5.909,5.956c1.097,0.41,2.275,0.636,3.493,0.636
			c0.012,0,0.023,0,0.034,0c4.223-0.015,7.98-2.679,9.391-6.658c1.495-4.218,3.803-7.967,6.72-11.11
			c4.38-4.719,10.146-8.056,16.705-9.45c8.326-1.768,16.842-0.19,23.981,4.444c7.139,4.636,12.045,11.774,13.814,20.1l43.776,205.95
			h-15.914H55.566L99.343,91.253z M354.847,351.012h-12.259H62.16l-5.008-25.111l-1.735-8.698h294.658h11.516L354.847,351.012z"/>
		<path d="M156.425,237.241c-5.5-0.487-10.355,3.579-10.842,9.08l-2.653,30.001c-0.487,5.501,3.579,10.355,9.08,10.842
			c0.3,0.026,0.597,0.04,0.893,0.04c5.124,0,9.489-3.919,9.949-9.12l2.653-30.001C165.992,242.582,161.927,237.728,156.425,237.241z
			"/>
		<path d="M167.749,109.213c-5.501-0.481-10.355,3.578-10.842,9.08l-7.786,88.03c-0.487,5.501,3.579,10.355,9.08,10.842
			c0.3,0.026,0.597,0.04,0.893,0.04c5.124,0,9.489-3.918,9.949-9.12l7.786-88.03C177.316,114.554,173.251,109.699,167.749,109.213z"
			/>
		<path d="M260.084,118.293c-0.486-5.502-5.34-9.57-10.842-9.08c-5.502,0.486-9.566,5.341-9.08,10.842l13.978,158.029
			c0.46,5.202,4.824,9.12,9.949,9.12c0.295,0,0.594-0.014,0.893-0.04c5.502-0.486,9.566-5.341,9.08-10.842L260.084,118.293z"/>
	</g>
</g>
<g>
</g>
<g>
</g>
<g>
</g>
<g>
</g>
<g>
</g>
<g>
</g>
<g>
</g>
<g>
</g>
<g>
</g>
<g>
</g>
<g>
</g>
<g>
</g>
<g>
</g>
<g>
</g>
<g>
</g>
</svg>
