<?xml version="1.0" encoding="iso-8859-1"?>
<!-- Generator: Adobe Illustrator 19.1.0, SVG Export Plug-In . SVG Version: 6.00 Build 0)  -->
<svg version="1.1" id="Capa_1" xmlns="http://www.w3.org/2000/svg" xmlns:xlink="http://www.w3.org/1999/xlink" x="0px" y="0px"
	 viewBox="0 0 405 405" style="enable-background:new 0 0 405 405;" xml:space="preserve">
<g>
	<g>
		<polygon style="fill:#FF8598;" points="212.496,265.763 212.496,320.185 349.187,241.339 349.187,186.916 		"/>
		<polygon style="fill:#303333;" points="212.496,208.261 212.496,242.674 349.187,163.827 349.187,129.416 		"/>
		<polygon style="fill:#303333;" points="192.496,208.261 45.653,123.55 45.651,157.962 192.496,242.674 		"/>
		<polygon style="fill:#FF8598;" points="192.496,265.763 45.649,181.051 45.646,235.475 192.496,320.185 		"/>
		<polygon style="fill:#FF8598;" points="55.987,106.421 202.496,190.94 338.848,112.289 192.324,27.779 		"/>
		<polygon style="fill:#303333;" points="192.496,343.273 45.644,258.563 45.642,292.976 192.496,377.688 		"/>
		<polygon style="fill:#303333;" points="343.601,267.65 212.496,343.273 212.496,377.688 349.187,298.842 349.187,264.796 		"/>
	</g>
	<path d="M374.361,97.577c-0.015-0.008-0.031-0.014-0.045-0.022L207.492,1.338c-3.092-1.785-6.901-1.783-9.993,0L30.657,97.574
		c-0.001,0.001-0.002,0.002-0.003,0.002c-0.001,0.001-0.001,0.001-0.002,0.001c-0.141,0.082-0.267,0.182-0.403,0.27
		c-0.236,0.152-0.478,0.298-0.698,0.468c-0.094,0.072-0.175,0.158-0.266,0.234c-0.246,0.204-0.494,0.407-0.718,0.632
		c-0.071,0.071-0.129,0.153-0.197,0.226c-0.229,0.244-0.456,0.489-0.658,0.753c-0.068,0.089-0.121,0.187-0.185,0.278
		c-0.186,0.261-0.373,0.521-0.533,0.799c-0.095,0.165-0.167,0.342-0.253,0.512c-0.109,0.216-0.228,0.426-0.32,0.649
		c-0.131,0.315-0.233,0.643-0.332,0.971c-0.026,0.087-0.064,0.17-0.088,0.258c-0.227,0.84-0.346,1.716-0.346,2.609l-0.008,134.719
		c-0.001,0.041,0.001,0.082,0,0.123l-0.004,57.673c0,3.574,1.907,6.877,5.003,8.663l166.854,96.249
		c1.546,0.892,3.271,1.338,4.997,1.338c1.725,0,3.451-0.446,4.997-1.338l166.863-96.249c3.096-1.786,5.003-5.088,5.003-8.662
		V106.237C379.359,102.664,377.453,99.364,374.361,97.577z M202.496,21.544l146.842,84.693l-10.49,6.051L202.496,190.94
		L55.987,106.421l-0.319-0.184L202.496,21.544z M45.644,258.563l146.851,84.71v34.415L45.642,292.976L45.644,258.563z
		 M45.653,123.55l146.843,84.711v34.413L45.651,157.962L45.653,123.55z M45.649,181.051l146.846,84.713v54.421l-146.85-84.71
		L45.649,181.051z M359.359,292.975l-10.172,5.867l-136.691,78.846v-34.415l131.105-75.623l15.758-9.089V292.975z M359.359,235.472
		l-10.172,5.867l-136.691,78.846v-54.422l136.691-78.848l10.172-5.867V235.472z M359.359,157.96l-10.172,5.867l-136.691,78.847
		v-34.414l136.691-78.845l10.172-5.867V157.96z"/>
</g>
<g>
</g>
<g>
</g>
<g>
</g>
<g>
</g>
<g>
</g>
<g>
</g>
<g>
</g>
<g>
</g>
<g>
</g>
<g>
</g>
<g>
</g>
<g>
</g>
<g>
</g>
<g>
</g>
<g>
</g>
</svg>
