<?xml version="1.0" encoding="iso-8859-1"?>
<!-- Generator: Adobe Illustrator 19.1.0, SVG Export Plug-In . SVG Version: 6.00 Build 0)  -->
<svg version="1.1" id="Capa_1" xmlns="http://www.w3.org/2000/svg" xmlns:xlink="http://www.w3.org/1999/xlink" x="0px" y="0px"
	 viewBox="0 0 377.812 377.812" style="enable-background:new 0 0 377.812 377.812;" xml:space="preserve">
<g>
	<g>
		<path style="fill:#00CE89;" d="M338.151,222.963c-5.479,0.303-8.574,1.27-12.31,2.441c-5.17,1.621-11.029,3.458-22.128,3.458
			c-11.099,0-16.958-1.837-22.128-3.458c-4.529-1.42-8.106-2.542-16.143-2.542c-8.036,0-11.613,1.122-16.142,2.542
			c-5.169,1.621-11.027,3.458-22.125,3.458c-11.1,0-16.956-1.837-22.124-3.458c-4.525-1.42-8.101-2.542-16.137-2.542
			c-8.038,0-11.618,1.122-16.15,2.542c-5.172,1.621-11.034,3.458-22.132,3.458c-11.099,0-16.957-1.837-22.126-3.458
			c-4.528-1.42-8.105-2.542-16.141-2.542c-8.037,0-11.614,1.122-16.144,2.542c-5.17,1.621-11.029,3.458-22.128,3.458
			s-16.958-1.837-22.128-3.458c-4.529-1.42-8.107-2.542-16.144-2.542c-3.451,0-6.147,0.564-8.263,1.459
			c-0.232,0.117-0.468,0.224-0.707,0.321c-2.037,0.996-3.466,2.322-4.479,3.733c-2.081,2.901-2.374,6.167-2.374,7.706
			c0,3.092,1.312,7.998,4.83,7.998h234.575c4.552,0,8.388,3.046,9.597,7.208c1.026-0.737,2.194-1.288,3.457-1.597
			c0.505-0.124,1.026-0.209,1.558-0.252c-0.533,0.043-1.053,0.128-1.558,0.252c-1.263,0.309-2.432,0.86-3.457,1.597
			c0.258,0.887,0.403,1.822,0.403,2.792c0,0.38-0.028,0.752-0.069,1.121h14.135c-0.041-0.368-0.067-0.741-0.067-1.121
			c0-1.689,0.423-3.278,1.162-4.673c1.678-3.167,5.004-5.327,8.838-5.327h45.543h1.551
			C342.192,239.606,344.306,230.61,338.151,222.963z M180.176,229.015c-0.904-0.18-1.865-0.336-2.916-0.462
			C178.312,228.68,179.272,228.835,180.176,229.015c0.904,0.18,1.753,0.384,2.582,0.606
			C181.929,229.399,181.081,229.195,180.176,229.015z M283.112,234.168c-1.961-0.042-3.749-0.143-5.392-0.291
			C279.364,234.025,281.151,234.127,283.112,234.168c0.654,0.014,1.327,0.021,2.021,0.021
			C284.44,234.189,283.766,234.182,283.112,234.168z M334.447,231.234c0.615,0.463,1.152,0.961,1.62,1.479
			C335.599,232.194,335.062,231.697,334.447,231.234z"/>
		<path style="fill:#D4B783;" d="M334.447,231.234c0.615,0.463,1.152,0.961,1.62,1.479
			C335.599,232.194,335.062,231.697,334.447,231.234z"/>
		<path style="fill:none;stroke:#D4B783;stroke-width:0;stroke-linecap:round;stroke-linejoin:round;" d="M177.26,228.553
			c1.052,0.126,2.012,0.282,2.916,0.462"/>
		<path style="fill:none;stroke:#D4B783;stroke-width:0;stroke-linecap:round;stroke-linejoin:round;" d="M180.176,229.015
			c0.904,0.18,1.753,0.384,2.582,0.606"/>
		<path style="fill:none;stroke:#D4B783;stroke-width:0;stroke-linecap:round;stroke-linejoin:round;" d="M272.46,249.692
			c0.505-0.124,1.026-0.209,1.558-0.252"/>
		<path style="fill:none;stroke:#D4B783;stroke-width:0;stroke-linecap:round;stroke-linejoin:round;" d="M283.112,234.168
			c0.654,0.014,1.327,0.021,2.021,0.021"/>
		<path style="fill:#D4B783;" d="M283.112,234.168c-1.961-0.042-3.749-0.143-5.392-0.291
			C279.364,234.025,281.151,234.127,283.112,234.168z"/>
		<path style="fill:#89634A;" d="M35.822,202.862c11.099,0,16.958,1.837,22.128,3.458c4.529,1.42,8.107,2.542,16.144,2.542
			s11.614-1.122,16.144-2.542c5.17-1.621,11.029-3.458,22.128-3.458c11.098,0,16.956,1.837,22.125,3.458
			c4.528,1.42,8.105,2.542,16.142,2.542c8.038,0,11.618-1.122,16.15-2.542c5.172-1.621,11.034-3.458,22.132-3.458
			c11.1,0,16.956,1.837,22.124,3.458c4.525,1.42,8.101,2.542,16.137,2.542c8.035,0,11.612-1.122,16.141-2.542
			c5.169-1.621,11.027-3.458,22.126-3.458c11.099,0,16.958,1.837,22.128,3.458c4.529,1.42,8.106,2.542,16.143,2.542
			c8.037,0,11.614-1.122,16.144-2.542c4.203-1.317,8.862-2.778,16.42-3.278c0.195-0.013,0.398-0.023,0.597-0.034
			c2.48-5.054,3.1-10.478,3.366-14.101c0.329-4.48,0.035-9.397-0.704-13.991c-9.533-0.249-14.905-1.927-19.679-3.423
			c-4.529-1.42-8.106-2.542-16.144-2.542c-8.037,0-11.614,1.122-16.143,2.542c-5.17,1.621-11.029,3.458-22.128,3.458
			c-11.099,0-16.957-1.837-22.126-3.458c-4.528-1.42-8.105-2.542-16.141-2.542c-8.036,0-11.611,1.122-16.137,2.542
			c-5.168,1.621-11.024,3.458-22.124,3.458c-11.098,0-16.96-1.837-22.132-3.458c-4.532-1.42-8.112-2.542-16.15-2.542
			c-8.036,0-11.613,1.122-16.142,2.542c-5.169,1.621-11.027,3.458-22.125,3.458c-11.099,0-16.958-1.837-22.128-3.458
			c-4.529-1.42-8.106-2.542-16.144-2.542s-11.614,1.122-16.144,2.542c-5.17,1.621-11.029,3.458-22.128,3.458
			c-3.603,0-6.827-0.385-9.717-1.033c-1.305,1.833-2.341,3.926-3.105,6.176c-0.938,2.763-1.457,5.767-1.457,8.876
			c0,5.595,1.632,10.888,4.498,14.962C29.05,203.243,32.308,202.862,35.822,202.862z"/>
		<path style="fill:#D4B783;" d="M119.382,126.874c4.742,0.003,9.929,0.007,15.038,0.011c-0.33-0.916-0.515-1.892-0.515-2.91
			c0-0.031,0.006-0.062,0.006-0.093c-0.001-0.05-0.006-0.099-0.006-0.15c0-1.689,0.423-3.278,1.162-4.673
			c1.678-3.167,5.005-5.327,8.838-5.327h178.222c-7.191-23.634-30.736-41.021-58.624-41.021H77.163c-2.465,0-4.891,0.149-7.28,0.413
			c-17.462,7.588-30.404,22.605-34.017,40.608h74.039c3.834,0,7.16,2.16,8.838,5.327c0.315,0.594,0.568,1.224,0.759,1.882
			c0.258,0.887,0.403,1.822,0.403,2.792c0,0.053-0.006,0.104-0.007,0.157c0,0.029,0.007,0.057,0.007,0.086
			C119.905,124.99,119.711,125.961,119.382,126.874z"/>
		<path style="fill:#EFCF48;" d="M337.463,133.732H143.905c-4.42,0-8.163-2.871-9.485-6.847c-5.109-0.004-10.296-0.008-15.038-0.011
			h0c-0.673,2.02-1.958,3.758-3.654,4.977c-1.641,1.179-3.648,1.882-5.823,1.882h-9.742H24.83c-2.601,0-3.993,2.68-4.544,5.327
			c-0.136,0.655-0.205,1.292-0.244,1.902c0.074,1.46,0.266,3.333,0.715,5.327c0.832,2.429,2.547,5.126,6.041,6.855
			c0.336,0.131,0.667,0.277,0.99,0.445c2.081,0.84,4.707,1.363,8.034,1.363c8.037,0,11.614-1.122,16.144-2.542
			c5.17-1.621,11.029-3.458,22.128-3.458s16.958,1.837,22.128,3.458c4.529,1.42,8.106,2.542,16.144,2.542
			c8.035,0,11.612-1.122,16.141-2.542c5.169-1.621,11.027-3.458,22.126-3.458c11.098,0,16.96,1.837,22.132,3.458
			c4.532,1.42,8.112,2.542,16.15,2.542c8.036,0,11.611-1.122,16.137-2.542c5.168-1.621,11.024-3.458,22.124-3.458
			c11.098,0,16.956,1.837,22.125,3.458c4.528,1.42,8.105,2.542,16.142,2.542c8.037,0,11.614-1.122,16.143-2.542
			c5.17-1.621,11.029-3.458,22.128-3.458c11.099,0,16.958,1.837,22.128,3.458c3.432,1.076,6.322,1.98,11.016,2.355
			c0.478,0.038,0.982,0.069,1.499,0.096c0.74-3.017,0.877-5.822,0.877-7.412C339.233,144.479,338.724,138.057,337.463,133.732z"/>
		<path style="fill:#D4B783;" d="M265.228,262.199c-1.641,1.179-3.648,1.882-5.823,1.882h-9.742H35.666
			c0.3,1.803,0.679,3.58,1.134,5.327c3.783,14.52,12.811,26.941,24.927,35.129c11.223,6.402,23.29,10.414,34.016,10.414h186.34
			c2.463,0,4.888-0.161,7.275-0.447c15.243-7.177,29.657-31.132,35.562-50.423h-31.515c-5.143,0-9.376-3.884-9.933-8.879
			l-14.141,0.096C268.984,258.138,267.443,260.607,265.228,262.199z"/>
	</g>
	<path d="M376.27,188.97c0-9.005-2.555-17.694-7.091-24.843c5.567-5.997,8.634-13.937,8.634-22.404
		c0-12.075-6.111-21.903-15.216-25.971c-4.021-40.861-38.596-72.89-80.514-72.89H95.743c-41.923,0-76.5,32.029-80.522,72.89
		C6.113,119.821,0,129.652,0,141.73c0,8.466,3.067,16.405,8.633,22.4c-4.535,7.148-7.09,15.836-7.09,24.84
		c0,8.99,2.551,17.678,7.078,24.826C2.921,219.976,0,228.051,0,236.083c0,12.078,6.113,21.909,15.221,25.978
		c4.022,40.861,38.6,72.89,80.522,72.89h186.34c41.918,0,76.492-32.029,80.514-72.89c9.105-4.068,15.216-13.897,15.216-25.971
		c0-8.034-2.922-16.109-8.622-22.291C373.719,206.649,376.27,197.961,376.27,188.97z M352.987,244.081h-12.489h-1.551h-45.543
		c-3.834,0-7.16,2.16-8.838,5.327c-0.74,1.395-1.162,2.984-1.162,4.673c0,0.379,0.025,0.752,0.067,1.121v0
		c0.558,4.995,4.79,8.879,9.933,8.879h31.515h17.231c-4.398,26.468-25.935,47.21-52.793,50.423
		c-2.387,0.285-4.812,0.447-7.275,0.447H95.743c-12.592,0-24.297-3.846-34.016-10.414c-12.116-8.188-21.145-20.609-24.927-35.129
		c-0.455-1.747-0.834-3.523-1.134-5.327h213.997h9.742c2.175,0,4.182-0.702,5.823-1.882c2.215-1.592,3.756-4.061,4.102-6.902
		c0.004-0.031,0.003-0.064,0.006-0.096c0.041-0.368,0.069-0.741,0.069-1.121c0-0.97-0.145-1.905-0.403-2.792v0
		c-1.209-4.163-5.045-7.208-9.597-7.208H24.83c-3.518,0-4.83-4.906-4.83-7.998c0-1.54,0.293-4.805,2.374-7.706
		c1.012-1.411,2.442-2.737,4.479-3.733c0.239-0.098,0.475-0.205,0.707-0.321c2.116-0.896,4.811-1.459,8.263-1.459
		c8.037,0,11.614,1.122,16.144,2.542c5.17,1.621,11.029,3.458,22.128,3.458s16.958-1.837,22.128-3.458
		c4.529-1.42,8.106-2.542,16.144-2.542c8.035,0,11.612,1.122,16.141,2.542c5.169,1.621,11.027,3.458,22.126,3.458
		c11.098,0,16.96-1.837,22.132-3.458c4.532-1.42,8.112-2.542,16.15-2.542c8.036,0,11.611,1.122,16.137,2.542
		c5.168,1.621,11.024,3.458,22.124,3.458c11.098,0,16.956-1.837,22.125-3.458c4.528-1.42,8.105-2.542,16.142-2.542
		c8.037,0,11.614,1.122,16.143,2.542c5.17,1.621,11.029,3.458,22.128,3.458c11.099,0,16.958-1.837,22.128-3.458
		c3.736-1.172,6.832-2.138,12.31-2.441c1.163-0.064,2.426-0.1,3.833-0.1c3.465,0,6.168,0.568,8.288,1.47
		c0.219,0.109,0.441,0.21,0.667,0.303c6.244,3.044,6.874,9.162,6.874,11.454C357.812,239.179,356.503,244.081,352.987,244.081z
		 M21.543,188.97c0-3.109,0.519-6.113,1.457-8.876c0.764-2.25,1.8-4.343,3.105-6.176c2.89,0.647,6.115,1.033,9.717,1.033
		c11.099,0,16.958-1.837,22.128-3.458c4.529-1.42,8.107-2.542,16.144-2.542s11.614,1.122,16.144,2.542
		c5.17,1.621,11.029,3.458,22.128,3.458c11.098,0,16.956-1.837,22.125-3.458c4.528-1.42,8.105-2.542,16.142-2.542
		c8.038,0,11.618,1.122,16.15,2.542c5.172,1.621,11.034,3.458,22.132,3.458c11.1,0,16.956-1.837,22.124-3.458
		c4.525-1.42,8.101-2.542,16.137-2.542c8.035,0,11.612,1.122,16.141,2.542c5.169,1.621,11.027,3.458,22.126,3.458
		c11.099,0,16.958-1.837,22.128-3.458c4.529-1.42,8.106-2.542,16.143-2.542c8.037,0,11.614,1.122,16.144,2.542
		c4.774,1.496,10.146,3.174,19.679,3.423c0.79,0.021,1.599,0.035,2.449,0.035c3.604,0,6.831-0.386,9.722-1.034
		c2.907,4.085,4.563,9.412,4.563,15.054c0,5.595-1.632,10.889-4.498,14.963c-3.011-0.691-6.271-1.071-9.787-1.071
		c-1.844,0-3.535,0.053-5.111,0.145c-0.198,0.012-0.402,0.021-0.597,0.034c-7.559,0.5-12.217,1.961-16.42,3.278
		c-4.529,1.42-8.106,2.542-16.144,2.542c-8.037,0-11.614-1.122-16.143-2.542c-5.17-1.621-11.029-3.458-22.128-3.458
		c-11.099,0-16.957,1.837-22.126,3.458c-4.528,1.42-8.105,2.542-16.141,2.542c-8.036,0-11.611-1.122-16.137-2.542
		c-5.168-1.621-11.024-3.458-22.124-3.458c-11.098,0-16.96,1.837-22.132,3.458c-4.532,1.42-8.112,2.542-16.15,2.542
		c-8.036,0-11.613-1.122-16.142-2.542c-5.169-1.621-11.027-3.458-22.125-3.458c-11.099,0-16.958,1.837-22.128,3.458
		c-4.529,1.42-8.106,2.542-16.144,2.542s-11.614-1.122-16.144-2.542c-5.17-1.621-11.029-3.458-22.128-3.458
		c-3.514,0-6.772,0.38-9.782,1.07C23.175,199.858,21.543,194.565,21.543,188.97z M351.001,153.147
		c-0.328,0.128-0.651,0.27-0.965,0.433c-2.084,0.844-4.715,1.37-8.051,1.37c-1.327,0-2.522-0.033-3.628-0.091
		c-0.517-0.027-1.021-0.058-1.499-0.096c-4.694-0.375-7.583-1.279-11.016-2.355c-5.17-1.621-11.029-3.458-22.128-3.458
		c-11.099,0-16.958,1.837-22.128,3.458c-4.529,1.42-8.106,2.542-16.143,2.542c-8.036,0-11.613-1.122-16.142-2.542
		c-5.169-1.621-11.027-3.458-22.125-3.458c-11.1,0-16.956,1.837-22.124,3.458c-4.525,1.42-8.101,2.542-16.137,2.542
		c-8.038,0-11.618-1.122-16.15-2.542c-5.172-1.621-11.034-3.458-22.132-3.458c-11.099,0-16.957,1.837-22.126,3.458
		c-4.528,1.42-8.105,2.542-16.141,2.542c-8.037,0-11.614-1.122-16.144-2.542c-5.17-1.621-11.029-3.458-22.128-3.458
		s-16.958,1.837-22.128,3.458c-4.529,1.42-8.107,2.542-16.144,2.542c-3.327,0-5.953-0.523-8.034-1.363
		c-0.323-0.168-0.654-0.314-0.99-0.445c-3.495-1.729-5.21-4.425-6.041-6.855C20.119,144.426,20,142.72,20,141.73
		c0-0.241,0.025-0.51,0.042-0.769c0.039-0.61,0.108-1.247,0.244-1.902c0.551-2.647,1.943-5.327,4.544-5.327h75.333h9.742
		c2.175,0,4.182-0.702,5.823-1.882c1.695-1.218,2.981-2.957,3.654-4.977c0.313-0.942,0.499-1.941,0.516-2.984
		c0.001-0.053,0.007-0.104,0.007-0.157c0-0.97-0.145-1.905-0.403-2.792c-0.191-0.658-0.444-1.288-0.759-1.882
		c-1.678-3.167-5.004-5.327-8.838-5.327H35.866h-0.2c3.322-19.993,16.428-36.72,34.217-45.095c7.854-3.698,16.617-5.774,25.86-5.774
		h186.34c30.174,0,55.28,22.049,60.068,50.87h-19.713h-0.311H143.905c-3.833,0-7.16,2.16-8.838,5.327
		c-0.739,1.395-1.162,2.984-1.162,4.673c0,0.051,0.006,0.1,0.006,0.15c0.016,1.048,0.194,2.056,0.509,3.003
		c1.322,3.976,5.065,6.847,9.485,6.847h193.558h15.525c3.516,0,4.825,4.902,4.825,7.992
		C357.812,144.008,357.186,150.093,351.001,153.147z"/>
</g>
<g>
</g>
<g>
</g>
<g>
</g>
<g>
</g>
<g>
</g>
<g>
</g>
<g>
</g>
<g>
</g>
<g>
</g>
<g>
</g>
<g>
</g>
<g>
</g>
<g>
</g>
<g>
</g>
<g>
</g>
</svg>
