<?xml version="1.0" encoding="iso-8859-1"?>
<!-- Generator: Adobe Illustrator 19.1.0, SVG Export Plug-In . SVG Version: 6.00 Build 0)  -->
<svg version="1.1" id="Capa_1" xmlns="http://www.w3.org/2000/svg" xmlns:xlink="http://www.w3.org/1999/xlink" x="0px" y="0px"
	 viewBox="0 0 423.001 423.001" style="enable-background:new 0 0 423.001 423.001;" xml:space="preserve">
<g>
	<g>
		<path style="fill:#FFD0FA;" d="M196.847,291.191l-56.095-100.116c-6.04-4.026-17.835,0.119-27.685,9.968
			c-11.8,11.8-18.68,29.244-16.401,41.204l16.212,28.935c2.699,4.818,0.982,10.913-3.837,13.612
			c-4.816,2.699-10.912,0.982-13.612-3.836L79.428,252.4c-6.041-4.028-17.837,0.12-27.686,9.968
			c-11.556,11.557-18.405,28.441-16.519,40.508c6.898,18.293,21.889,39.806,41.257,59.174c11.473,11.474,23.697,21.395,35.56,29.024
			c15.007-14.107,19.746-32.429,17.365-49.475l-19.479-34.764c-2.699-4.818-0.982-10.913,3.836-13.612
			c4.818-2.699,10.912-0.982,13.612,3.836l26.896,48.003c6.486-0.87,14.27-4.15,20.729-9.561
			C188.946,323.819,196.085,304.344,196.847,291.191z"/>
		<path style="fill:#FFD0FA;" d="M372.137,109.138c-6.898-18.293-27.602-36.604-46.97-55.972
			c-11.059-11.06-25.97-21.179-36.127-26.126c-6.707,10.391-10.099,22.329-8.403,31.235l7.411,13.225
			c2.699,4.818,0.982,10.913-3.836,13.612c-4.819,2.701-10.913,0.983-13.612-3.835l-7.2-12.85
			c-6.042-4.025-17.836,0.12-27.685,9.969c-11.8,11.8-18.68,29.243-16.402,41.204l33.299,59.431
			c2.699,4.818,0.982,10.913-3.836,13.612c-4.818,2.699-10.912,0.981-13.612-3.836l-33.088-59.055
			c-6.041-4.025-17.835,0.12-27.685,9.969c-11.8,11.8-18.68,29.243-16.402,41.204l57.445,102.524
			c5.714-1.215,12.238-4.933,17.536-11.154c16.166-18.981,25.865-37.516,21.451-49.121l-4.758-8.492
			c-2.699-4.818-0.982-10.913,3.836-13.612c4.818-2.7,10.912-0.981,13.612,3.836l9.507,16.968
			c5.539-1.376,11.935-5.161,17.677-10.903c11.8-11.8,25.354-42.154,17.599-55.994l0,0l-26.796-47.824
			c-2.699-4.818-0.982-10.913,3.836-13.612c4.819-2.699,10.912-0.981,13.612,3.836l35.395,63.173
			c5.539-1.376,11.935-5.161,17.677-10.903C367.174,138.09,374.023,121.205,372.137,109.138z"/>
	</g>
	<path d="M407.294,115.634c-0.101-0.533-0.246-1.058-0.432-1.567c-7.72-21.103-24.559-45.618-46.2-67.258
		c-21.641-21.641-46.156-38.48-67.259-46.2c-3.656-1.336-7.753-0.432-10.507,2.32c-12.399,12.4-20.433,28.869-22.262,44.137
		c-12.424-1.008-26.832,4.958-39.062,17.188c-12.399,12.4-20.433,28.869-22.262,44.137c-12.428-1.006-26.833,4.959-39.062,17.188
		c-12.399,12.4-20.433,28.869-22.262,44.136c-12.425-1.006-26.833,4.959-39.062,17.188c-12.399,12.4-20.433,28.87-22.262,44.137
		c-12.419-1.006-26.833,4.958-39.062,17.188c-16.655,16.656-25.454,40.422-21.893,59.14c0.101,0.533,0.246,1.058,0.432,1.567
		c7.72,21.103,24.559,45.618,46.2,67.258c21.641,21.641,46.156,38.48,67.259,46.2c1.121,0.41,2.282,0.609,3.434,0.609
		c2.607-0.001,5.163-1.021,7.073-2.929c12.399-12.4,20.433-28.87,22.262-44.137c12.42,1.007,26.833-4.959,39.062-17.188
		c12.399-12.4,20.433-28.869,22.262-44.137c12.43,1.011,26.833-4.959,39.062-17.188c12.399-12.4,20.433-28.869,22.262-44.137
		c12.422,1.006,26.833-4.959,39.061-17.188c12.4-12.399,20.434-28.869,22.263-44.136c12.43,1.004,26.833-4.96,39.062-17.188
		C402.056,158.119,410.854,134.352,407.294,115.634z M187.286,344.605c-9.849,9.85-21.644,13.996-27.685,9.968l-5.33-9.512
		l-26.896-48.003c-2.7-4.817-8.794-6.535-13.612-3.836c-4.818,2.7-6.535,8.794-3.836,13.612l19.479,34.764l12.958,23.126
		c1.983,10.415-2.975,24.984-12.08,36.367c-5.872-2.622-12.009-6.009-18.243-10.018c-11.864-7.629-24.087-17.551-35.56-29.024
		c-19.368-19.368-34.359-40.88-41.257-59.174c-1.887-12.067,4.962-28.951,16.519-40.508c9.849-9.849,21.645-13.996,27.686-9.968
		l16.001,28.56c2.7,4.818,8.795,6.535,13.612,3.836c4.818-2.7,6.536-8.794,3.837-13.612l-16.212-28.935
		c-2.278-11.961,4.602-29.404,16.401-41.204c9.85-9.85,21.645-13.994,27.685-9.968l56.095,100.116l6.841,12.209
		C205.966,315.361,199.086,332.805,187.286,344.605z M371.258,160.632c-9.849,9.849-21.643,13.995-27.685,9.968l-5.632-10.052
		l-35.395-63.173c-2.7-4.817-8.793-6.535-13.612-3.836c-4.818,2.7-6.535,8.794-3.836,13.612l26.796,47.824l14.443,25.776
		c2.278,11.961-4.602,29.404-16.401,41.204c-9.849,9.849-21.645,13.996-27.685,9.968l-5.632-10.052l-9.507-16.968
		c-2.701-4.817-8.794-6.536-13.612-3.836c-4.818,2.7-6.535,8.794-3.836,13.612l4.758,8.492l10.592,18.904
		c2.278,11.96-4.602,29.404-16.402,41.204c-9.848,9.849-21.642,13.995-27.685,9.968l-5.492-9.801l-57.445-102.524
		c-2.278-11.96,4.602-29.404,16.402-41.204c9.849-9.849,21.644-13.994,27.685-9.969l33.088,59.055
		c2.7,4.817,8.794,6.535,13.612,3.836c4.818-2.7,6.535-8.794,3.836-13.612l-33.299-59.431c-2.278-11.96,4.602-29.404,16.402-41.204
		c9.848-9.849,21.643-13.994,27.685-9.969l7.2,12.85c2.699,4.818,8.793,6.537,13.612,3.835c4.818-2.699,6.535-8.793,3.836-13.612
		l-7.411-13.225c-1.696-8.905,1.695-20.844,8.403-31.235c1.137-1.761,2.357-3.482,3.677-5.132
		c17.047,7.611,36.301,21.539,53.804,39.042c19.368,19.368,34.359,40.88,41.257,59.174
		C389.664,132.192,382.815,149.076,371.258,160.632z"/>
</g>
<g>
</g>
<g>
</g>
<g>
</g>
<g>
</g>
<g>
</g>
<g>
</g>
<g>
</g>
<g>
</g>
<g>
</g>
<g>
</g>
<g>
</g>
<g>
</g>
<g>
</g>
<g>
</g>
<g>
</g>
</svg>
