<?xml version="1.0" encoding="iso-8859-1"?>
<!-- Generator: Adobe Illustrator 19.1.0, SVG Export Plug-In . SVG Version: 6.00 Build 0)  -->
<svg version="1.1" id="Capa_1" xmlns="http://www.w3.org/2000/svg" xmlns:xlink="http://www.w3.org/1999/xlink" x="0px" y="0px"
	 viewBox="0 0 417.008 417.008" style="enable-background:new 0 0 417.008 417.008;" xml:space="preserve">
<g>
	<path style="fill:#89634A;" d="M288.888,77.048c-25.639,0-48.434,12.4-62.71,31.516c-4.916,10.229-7.675,21.684-7.675,33.772
		c0,33.403,27.176,60.579,60.579,60.579c14.115,0,26.772-6.335,35.3-16.302c6.951-8.123,11.163-18.656,11.163-30.161
		c0-19.394-15.777-35.171-35.171-35.171c-12.178,0-22.436,8.373-25.323,19.665c-0.529,2.07-0.812,4.238-0.812,6.472
		c0,4.705-3.255,8.641-7.632,9.706c-0.76,0.185-1.55,0.294-2.368,0.294c-5.523,0-10-4.478-10-10c0-6.023,1.172-11.775,3.281-17.054
		c6.797-17.02,23.438-29.083,42.855-29.083c30.421,0,55.171,24.75,55.171,55.171c0,15.276-5.194,29.354-13.889,40.591
		c-12.167,15.722-31.202,25.872-52.573,25.872c-30.355,0-56.842-16.87-70.579-41.727c-13.737,24.857-40.225,41.727-70.579,41.727
		c-36.648,0-66.463-29.815-66.463-66.463c0-7.728,1.603-15.086,4.485-21.769c8.461-19.626,27.992-33.402,50.685-33.402
		c25.44,0,46.137,20.697,46.137,46.137c0,4.822-3.415,8.847-7.958,9.79c-0.659,0.137-1.342,0.21-2.042,0.21c-5.522,0-10-4.478-10-10
		c0-14.412-11.725-26.137-26.137-26.137c-15.445,0-28.586,10.012-33.301,23.883c-1.205,3.546-1.869,7.34-1.869,11.288
		c0,25.62,20.843,46.463,46.463,46.463c19.24,0,36.401-9.027,47.506-23.056c1.302-1.645,2.511-3.366,3.64-5.141l-1.171-1.432
		c1.783-5.694,2.765-11.739,2.765-18.014c0-43.133-35.091-78.224-78.224-78.224c-33.633,0-63.45,16.644-81.651,42.126
		C23.893,132.768,20,148.133,20,164.392c0,103.941,84.562,188.504,188.504,188.504c65.63,0,123.523-33.721,157.292-84.74
		c14.886-26.956,23.372-57.918,23.372-90.828C389.169,122.033,344.184,77.048,288.888,77.048z M318.773,274.661
		c-29.454,29.454-68.615,45.675-110.27,45.675s-80.815-16.221-110.27-45.675c-3.905-3.905-3.905-10.237,0-14.143
		c3.906-3.904,10.236-3.904,14.143,0c25.676,25.677,59.815,39.817,96.127,39.817s70.451-14.141,96.127-39.817
		c3.906-3.904,10.236-3.904,14.143,0C322.679,264.424,322.679,270.756,318.773,274.661z"/>
	<path d="M296.728,44.112c-38.687,0-72.22,22.477-88.224,55.062C192.5,66.59,158.967,44.112,120.28,44.112
		C53.958,44.112,0,98.069,0,164.392c0,114.97,93.534,208.504,208.504,208.504s208.504-93.534,208.504-208.504
		C417.008,98.069,363.05,44.112,296.728,44.112z M208.504,352.896C104.562,352.896,20,268.333,20,164.392
		c0-16.258,3.893-31.623,10.79-45.217c16.56-32.639,50.454-55.062,89.49-55.062c43.133,0,78.224,35.091,78.224,78.224
		c0,11.907-3.473,23.009-9.433,32.382c-1.129,1.776-2.338,3.497-3.64,5.141c-11.105,14.029-28.266,23.056-47.506,23.056
		c-25.62,0-46.463-20.843-46.463-46.463c0-3.948,0.664-7.742,1.869-11.288c4.715-13.871,17.856-23.883,33.301-23.883
		c14.412,0,26.137,11.725,26.137,26.137c0,5.522,4.478,10,10,10c0.7,0,1.382-0.073,2.042-0.21c4.543-0.943,7.958-4.967,7.958-9.79
		c0-25.439-20.697-46.137-46.137-46.137c-22.693,0-42.224,13.776-50.685,33.402c-2.881,6.683-4.485,14.041-4.485,21.769
		c0,36.647,29.815,66.463,66.463,66.463c30.354,0,56.842-16.87,70.579-41.727c13.737,24.857,40.225,41.727,70.579,41.727
		c21.372,0,40.407-10.151,52.573-25.872c8.696-11.237,13.889-25.315,13.889-40.591c0-30.421-24.75-55.171-55.171-55.171
		c-19.416,0-36.057,12.063-42.855,29.083c-2.109,5.28-3.281,11.031-3.281,17.054c0,5.522,4.477,10,10,10
		c0.817,0,1.607-0.109,2.368-0.294c4.378-1.065,7.632-5.001,7.632-9.706c0-2.233,0.283-4.401,0.812-6.472
		c2.887-11.292,13.145-19.665,25.323-19.665c19.393,0,35.171,15.777,35.171,35.171c0,11.505-4.212,22.038-11.163,30.161
		c-8.528,9.967-21.185,16.302-35.3,16.302c-33.403,0-60.579-27.176-60.579-60.579c0-12.088,2.758-23.542,7.675-33.772
		c12.627-26.272,39.504-44.452,70.549-44.452c55.295,0,100.28,44.985,100.28,100.279c0,38.311-11.499,73.982-31.211,103.764
		C332.027,319.174,274.134,352.896,208.504,352.896z"/>
</g>
<path d="M304.631,260.518c-25.676,25.677-59.814,39.817-96.127,39.817s-70.451-14.141-96.127-39.817
	c-3.906-3.904-10.236-3.904-14.143,0c-3.905,3.905-3.905,10.237,0,14.143c29.454,29.454,68.615,45.675,110.27,45.675
	s80.815-16.221,110.27-45.675c3.905-3.905,3.905-10.237,0-14.143C314.867,256.614,308.537,256.614,304.631,260.518z"/>
<g>
</g>
<g>
</g>
<g>
</g>
<g>
</g>
<g>
</g>
<g>
</g>
<g>
</g>
<g>
</g>
<g>
</g>
<g>
</g>
<g>
</g>
<g>
</g>
<g>
</g>
<g>
</g>
<g>
</g>
</svg>
