<?xml version="1.0" encoding="iso-8859-1"?>
<!-- Generator: Adobe Illustrator 19.1.0, SVG Export Plug-In . SVG Version: 6.00 Build 0)  -->
<svg version="1.1" id="Capa_1" xmlns="http://www.w3.org/2000/svg" xmlns:xlink="http://www.w3.org/1999/xlink" x="0px" y="0px"
	 viewBox="0 0 417.007 417.007" style="enable-background:new 0 0 417.007 417.007;" xml:space="preserve">
<path style="fill:#D4B783;" d="M352.482,239.503c0-9.029-3.244-16.782-10.479-20.318c-9.038,1.336-14.757,4.505-21.116,8.05
	c-4.262,2.375-8.927,4.976-14.699,7.071v3.044v14.963h36.155c1.833,0,3.592-0.412,5.243-1.143
	C350.84,248.283,352.482,243.861,352.482,239.503z"/>
<g>
	<g>
		<rect x="119.503" y="64.076" style="fill:#EFCA60;" width="71.059" height="26.809"/>
		<path style="fill:#89634A;" d="M350.187,134.789c0-9.321-7.469-16.904-16.65-16.904H60.956c-1.763,0-3.456,0.297-5.052,0.815
			c-0.012,0.019-0.026,0.037-0.038,0.057c-1.663,2.616-2.64,5.709-2.64,9.032c0,9.321,7.583,16.904,16.905,16.904
			c5.523,0,10,4.478,10,10c0,5.316-4.153,9.652-9.39,9.969c-0.203,0.012-0.404,0.031-0.61,0.031c-5.998,0-11.263,3.149-14.264,7.872
			c-1.663,2.617-2.641,5.71-2.641,9.033c0,9.321,7.583,16.904,16.905,16.904c0.783,0,1.541,0.099,2.272,0.269
			c15.919,1.221,25.164,6.379,33.442,10.999c8.397,4.686,15.649,8.732,30.969,8.732c15.32,0,22.573-4.047,30.97-8.732
			c8.324-4.645,17.629-9.833,33.71-11.017c1.445-0.158,2.955-0.251,4.554-0.251c0.277,0,0.534,0.013,0.807,0.015
			c0.542-0.009,1.087-0.015,1.643-0.015c20.524,0,31.257,5.983,40.727,11.262c5.556,3.097,10.355,5.771,17.189,7.333
			c4.547,1.039,7.772,5.085,7.772,9.749v35.456c0,0.003,0.001,0.007,0.001,0.01c0,0.003-0.001,0.006-0.001,0.01v9.021
			c0,2.24,1.236,4.193,3.059,5.224c0.87,0.492,1.872,0.776,2.941,0.776c3.309,0,6-2.691,6-6v-44.496
			c0-1.108,0.187-2.179,0.526-3.185c1.087-3.229,3.78-5.771,7.246-6.564c6.835-1.562,11.633-4.236,17.19-7.333
			c8.284-4.617,17.534-9.773,33.457-10.993c0.54-0.126,1.1-0.195,1.668-0.232c0.524-0.459,0.979-0.796,1.312-0.909
			c1.638-2.617,2.596-5.71,2.6-9.033c0.015-13.368-5.881-20.373-13.735-23.905h-91.445c-5.523,0-10-4.478-10-10
			c0-1.034,0.157-2.031,0.449-2.969c1.265-4.073,5.063-7.031,9.551-7.031h101.162c0.623-0.451,1.124-0.772,1.418-0.872
			C349.224,141.205,350.187,138.112,350.187,134.789z M195.007,164.694h-74c-5.523,0-10-4.478-10-10c0-5.522,4.477-10,10-10h74
			c5.523,0,10,4.478,10,10C205.007,160.216,200.53,164.694,195.007,164.694z"/>
		<path style="fill:#D4B783;" d="M55.836,226.397c-1.652,2.609-2.611,5.699-2.611,9.01c0,9.321,7.583,16.905,16.905,16.905h175.116
			h8.941v-18.007c-5.771-2.096-10.437-4.696-14.699-7.071c-8.405-4.686-15.664-8.731-30.99-8.731c-15.32,0-22.573,4.047-30.97,8.732
			c-9.465,5.281-20.193,11.268-40.715,11.268c-20.522,0-31.25-5.986-40.714-11.268c-7.743-4.321-14.529-8.09-27.549-8.652
			c-5.191,0.484-9.701,3.327-12.461,7.439C56.022,226.229,55.94,226.363,55.836,226.397z"/>
		<path style="fill:#D4B783;" d="M350.141,297.837c5.113-10.827,1.568-19.902-4.082-25.524h-39.896c-0.09,2.434-0.522,4.78-1.239,7
			c-2.21,6.848-7.183,12.465-13.605,15.521c-3.376,1.607-7.15,2.509-11.131,2.509c-0.266,0-0.53-0.012-0.794-0.02
			c-0.987,0.775-1.824,0.558-2.633-0.213c-12.406-1.642-22.078-12.062-22.548-24.798H70.13c-5.998,0-11.264,3.149-14.265,7.872
			c-1.663,2.616-2.64,5.709-2.64,9.032c0,9.321,7.583,16.904,16.904,16.904h271.19C344.637,304.684,347.836,302.717,350.141,297.837
			z"/>
		<polygon style="fill:#FF8598;" points="55.417,326.122 56.813,333.122 62.16,359.931 342.762,359.931 349.476,326.122 		"/>
	</g>
	<g>
		<path d="M407.007,306.122h-27.342c2.624-5.069,4.116-10.814,4.116-16.904c0-10.598-4.491-20.167-11.669-26.904
			c7.178-6.737,11.669-16.307,11.669-26.905c0-10.598-4.491-20.167-11.669-26.904c7.178-6.737,11.669-16.307,11.669-26.904
			c0-10.599-4.491-20.168-11.669-26.905c7.178-6.737,11.669-16.307,11.669-26.904c0-20.349-16.555-36.904-36.904-36.904H219.503
			V47.076c0-5.522-4.477-10-10-10h-100c-5.523,0-10,4.478-10,10v43.809H70.13c-20.349,0-36.905,16.556-36.905,36.904
			c0,10.598,4.491,20.167,11.669,26.904c-7.179,6.737-11.669,16.307-11.669,26.905c0,10.598,4.491,20.167,11.669,26.904
			c-7.178,6.737-11.669,16.307-11.669,26.904c0,10.599,4.491,20.168,11.669,26.905c-7.179,6.737-11.669,16.307-11.669,26.904
			c0,6.09,1.492,11.836,4.116,16.904H10c-5.523,0-10,4.478-10,10c0,5.522,4.477,10,10,10h25.023l9.128,45.766
			c0.933,4.677,5.038,8.044,9.807,8.044h309.092c4.769,0,8.874-3.367,9.807-8.044l9.128-45.766h25.023c5.523,0,10-4.478,10-10
			C417.007,310.599,412.53,306.122,407.007,306.122z M119.503,64.076v-7h80v33.809h-8.941h-71.059V64.076z M68.55,218.583
			c13.02,0.562,19.806,4.331,27.549,8.652c9.465,5.281,20.192,11.268,40.714,11.268c20.522,0,31.25-5.986,40.715-11.268
			c8.398-4.686,15.65-8.732,30.97-8.732c15.326,0,22.585,4.046,30.99,8.731c4.262,2.375,8.927,4.976,14.699,7.071v18.007h-8.941
			H70.13c-9.321,0-16.905-7.584-16.905-16.905c0-3.311,0.959-6.401,2.611-9.01c0.081-0.127,0.168-0.25,0.252-0.375
			C58.849,221.911,63.359,219.067,68.55,218.583z M354.847,359.931h-7.545h-4.54H62.16l-5.347-26.81l-1.396-7h294.059h12.114
			L354.847,359.931z M352.2,305.25c-1.676,0.558-3.462,0.872-5.323,0.872h-5.556H70.13c-9.321,0-16.904-7.583-16.904-16.904
			c0-3.323,0.977-6.416,2.64-9.032c3.001-4.723,8.266-7.872,14.265-7.872h184.082c0.47,12.736,10.141,23.156,22.548,24.798
			c0.865,0.115,1.743,0.186,2.633,0.213c0.264,0.008,0.528,0.02,0.794,0.02c3.982,0,7.755-0.902,11.131-2.509
			c6.422-3.057,11.395-8.673,13.605-15.521c0.717-2.22,1.149-4.566,1.239-7h39.896h0.818c9.321,0,16.904,7.583,16.904,16.904
			C363.781,296.678,358.918,303.013,352.2,305.25z M352.2,251.441c-1.676,0.558-3.462,0.872-5.323,0.872h-4.533h-36.155V237.35
			v-3.044c5.772-2.096,10.436-4.696,14.699-7.071c6.358-3.544,12.077-6.714,21.116-8.05c1.98-0.293,4.113-0.501,6.454-0.602
			c8.583,0.8,15.325,8.036,15.325,16.824C363.781,242.868,358.918,249.204,352.2,251.441z M245.007,144.694
			c-4.489,0-8.287,2.958-9.551,7.031c-0.291,0.938-0.449,1.935-0.449,2.969c0,5.522,4.477,10,10,10h91.445h10.425
			c9.321,0,16.904,7.584,16.904,16.905c0,7.46-4.863,13.795-11.581,16.033c-1.676,0.558-3.462,0.872-5.323,0.872
			c-0.204,0-0.402,0.024-0.602,0.037c-0.569,0.037-1.128,0.106-1.668,0.232c-15.923,1.22-25.173,6.376-33.457,10.993
			c-5.556,3.097-10.355,5.771-17.19,7.333c-3.467,0.792-6.16,3.335-7.246,6.564c-0.339,1.006-0.526,2.077-0.526,3.185v44.496
			c0,3.309-2.691,6-6,6c-1.069,0-2.071-0.284-2.941-0.776c-1.823-1.031-3.059-2.984-3.059-5.224v-9.021
			c0-0.003,0.001-0.007,0.001-0.01c0-0.003-0.001-0.006-0.001-0.01v-35.456c0-4.664-3.225-8.71-7.772-9.749
			c-6.834-1.562-11.633-4.236-17.189-7.333c-9.47-5.278-20.204-11.262-40.727-11.262c-0.556,0-1.102,0.006-1.643,0.015
			c-1.868,0.03-3.653,0.11-5.362,0.236c-16.082,1.183-25.386,6.372-33.71,11.017c-8.397,4.686-15.65,8.732-30.97,8.732
			c-15.32,0-22.572-4.047-30.969-8.732c-8.278-4.619-17.523-9.778-33.442-10.999c-0.731-0.17-1.489-0.269-2.272-0.269
			c-9.321,0-16.905-7.583-16.905-16.904c0-3.323,0.977-6.417,2.641-9.033c3.001-4.723,8.266-7.872,14.264-7.872
			c0.206,0,0.407-0.019,0.61-0.031c5.237-0.317,9.39-4.653,9.39-9.969c0-5.522-4.477-10-10-10c-9.321,0-16.905-7.583-16.905-16.904
			c0-3.323,0.977-6.416,2.64-9.032c0.012-0.019,0.026-0.037,0.038-0.057c3.007-4.691,8.253-7.815,14.226-7.815h276.746
			c9.321,0,16.904,7.583,16.904,16.904c0,7.46-4.863,13.795-11.581,16.032c-1.676,0.558-3.462,0.872-5.323,0.872h-0.708H245.007z"/>
		<path d="M195.007,144.694h-74c-5.523,0-10,4.478-10,10c0,5.522,4.477,10,10,10h74c5.523,0,10-4.478,10-10
			C205.007,149.171,200.53,144.694,195.007,144.694z"/>
	</g>
</g>
<g>
</g>
<g>
</g>
<g>
</g>
<g>
</g>
<g>
</g>
<g>
</g>
<g>
</g>
<g>
</g>
<g>
</g>
<g>
</g>
<g>
</g>
<g>
</g>
<g>
</g>
<g>
</g>
<g>
</g>
</svg>
