<?xml version="1.0" encoding="iso-8859-1"?>
<!-- Generator: Adobe Illustrator 19.1.0, SVG Export Plug-In . SVG Version: 6.00 Build 0)  -->
<svg version="1.1" id="Capa_1" xmlns="http://www.w3.org/2000/svg" xmlns:xlink="http://www.w3.org/1999/xlink" x="0px" y="0px"
	 viewBox="0 0 416.991 416.991" style="enable-background:new 0 0 416.991 416.991;" xml:space="preserve">
<g>
	<g>
		<path style="fill:#D4B783;" d="M49.086,300.92c8.377-14.441,18.389-27.697,29.946-39.672c4.76-4.931,9.774-9.651,15.056-14.137
			c2.792-2.37,6.503-2.933,9.732-1.824c1.641,0.564,3.159,1.552,4.364,2.97c2.172,2.556,2.826,5.885,2.07,8.908
			c-0.489,1.955-1.563,3.783-3.216,5.188c-2.844,2.416-5.596,4.913-8.273,7.474c-1.977,1.89-3.916,3.812-5.801,5.779
			c-13.479,14.068-24.605,30.093-33.222,47.86c6.025,5.697,14.592,9.81,23.565,14.116c7.585,3.642,15.429,7.407,22.369,12.457
			c6.133,4.463,11.531,9.946,16.715,15.387c0.597,0.627,1.193,1.253,1.785,1.877c3.273,3.449,6.477,6.82,9.729,9.843
			c-3.972-39.027,3.149-78.523,20.669-113.794c-6.61-6.499-12.046-14.18-15.98-22.695c-3.173,1.736-6.294,3.561-9.342,5.464
			c-1.646,1.027-3.478,1.518-5.285,1.518c-3.336,0-6.597-1.668-8.493-4.706c-1.402-2.248-1.794-4.835-1.315-7.243
			c0.52-2.612,2.066-5.014,4.503-6.536c0.972-0.607,1.955-1.202,2.941-1.793c3.592-2.154,7.266-4.208,10.991-6.154
			c-0.691-4.138-1.069-8.381-1.069-12.712c0-5.153,0.518-10.186,1.489-15.058c-38.644-4.929-77.985,2.271-112.456,20.649
			c0.264,1.484,0.627,2.969,1.066,4.457c2.069,7.018,5.907,14.095,9.904,21.449c3.925,7.221,7.983,14.688,10.546,22.582
			c2.678,8.246,3.855,16.906,4.994,25.281c0.376,2.762,0.753,5.48,1.17,8.137C48.5,297.662,48.775,299.313,49.086,300.92z"/>
		<path style="fill:#D4B783;" d="M364.47,164.511c-2.678-8.247-3.856-16.907-4.994-25.282c-0.379-2.786-0.759-5.528-1.181-8.208
			c-7.388,10.533-15.721,20.374-25.004,29.412c-0.707,0.688-1.491,1.247-2.322,1.684c-1.454,0.765-3.053,1.15-4.653,1.15
			c-2.604,0-5.206-1.011-7.167-3.024c-3.851-3.958-3.767-10.289,0.191-14.142c12.15-11.827,22.54-25.152,31.063-39.762
			c-6.791-5.591-19.105-12.969-27.168-16.839c-7.585-3.642-15.429-7.406-22.369-12.457c-6.131-4.461-11.528-9.942-16.711-15.381
			c-0.109,31.771-7.479,63.273-21.737,91.977c6.607,6.496,12.041,14.173,15.975,22.684c7.196-3.94,14.148-8.338,20.747-13.159
			c2.085-1.521,4.561-2.107,6.941-1.857c2.711,0.285,5.298,1.659,7.034,4.033c1.742,2.384,2.263,5.28,1.699,7.959
			c-0.491,2.332-1.8,4.499-3.875,6.016c-2.206,1.611-4.448,3.177-6.721,4.702c-6.377,4.278-13.005,8.214-19.819,11.774
			c0.216,1.296,0.39,2.605,0.543,3.92c0.335,2.885,0.525,5.813,0.525,8.786c0,5.153-0.518,10.186-1.489,15.058
			c34.406,4.389,69.361-0.846,100.942-15.015c-2.069-7.017-5.907-14.094-9.904-21.447
			C371.091,179.871,367.034,172.404,364.47,164.511z"/>
		<path style="fill:#F24646;" d="M198.049,161.615c-12.723,0-24.483,4.194-33.976,11.27c-7.841,9.762-12.548,22.144-12.548,35.611
			c0,31.414,25.557,56.971,56.971,56.971c12.723,0,24.483-4.194,33.976-11.27c7.841-9.762,12.548-22.144,12.548-35.611
			C255.02,187.172,229.464,161.615,198.049,161.615z"/>
		<path style="fill:#D4B783;" d="M224.114,40.547c-8.449,1.527-17.185,3.106-26.07,3.106c-4.378,0-16.623-7.507-25.509-12.223
			c1.821,2.112,3.613,4.245,5.338,6.421c0.975,1.23,1.603,2.621,1.919,4.057c0.796,3.617-0.446,7.536-3.544,9.991
			c-1.838,1.456-4.029,2.163-6.205,2.163c-0.155,0-0.309-0.018-0.463-0.025c-2.789-0.129-5.51-1.403-7.381-3.763
			c-5.239-6.61-10.985-12.914-17.119-18.817c-6.547,3.543-12.463,9.387-18.522,15.725c-0.792,0.828-1.586,1.664-2.384,2.505
			c-4.288,4.518-8.686,9.151-13.491,13.281c-1.619,1.392-3.285,2.728-5.008,3.983c-6.94,5.052-14.785,8.817-22.371,12.459
			c-4.168,2.001-8.247,3.96-12.026,6.055c2.237,0.485,4.462,1.009,6.677,1.566c35.711,8.978,68.562,27.299,95.016,53.215
			c4.574-2.391,9.424-4.316,14.476-5.755c3.903-1.112,7.925-1.941,12.053-2.424c-3.897-20.717-11.158-40.434-21.669-58.741
			c-0.884-1.539-1.307-3.214-1.324-4.871c-0.035-3.499,1.765-6.914,5.016-8.781c4.789-2.75,10.903-1.097,13.652,3.692
			c12.311,21.439,20.591,44.619,24.691,69.003c7.486,1.113,14.61,3.329,21.233,6.444c1.709,0.804,3.392,1.652,5.03,2.575
			c14.642-31.002,20.51-65.421,17.06-99.447c-5.79-1.437-16.06-4.107-17.393-4.107C239.112,37.836,231.826,39.153,224.114,40.547z"
			/>
		<path style="fill:#D4B783;" d="M24.984,189.7c34.679-15.318,72.977-20.917,110.676-16.085c1.326,0.17,2.652,0.35,3.977,0.546
			c4.194-8.376,9.863-15.886,16.677-22.183c-28.367-26.718-64.435-44.028-103.133-49.425c-1.592,3.364-2.711,7.147-3.597,11.178
			c-1.065,4.844-1.789,10.053-2.517,15.407c-1.139,8.376-2.316,17.037-4.994,25.283c-2.562,7.895-6.621,15.361-10.546,22.583
			C29.183,181.317,26.897,185.534,24.984,189.7z"/>
		<path style="fill:#D4B783;" d="M218.11,377.5c7.096,0,14.112,0.672,21.008,1.566c-0.014-0.017-0.027-0.035-0.041-0.052
			c-9.235-10.167-16.056-21.284-21.339-32.985c-9.972-19.163-16.971-39.87-20.613-61.408c-9.032-1.344-17.541-4.284-25.269-8.489
			c-0.357-0.133-0.708-0.265-1.055-0.396c-1.941,4.119-3.723,8.3-5.354,12.531c-12.303,31.919-15.731,66.754-9.714,100.675
			c1.572,0.192,3.225,0.303,5.008,0.303c8.286,0,15.48-7.146,25.043-8.57C196.259,379.114,207.092,377.5,218.11,377.5z"/>
		<path style="fill:#D4B783;" d="M272.027,373.506c4.142-4.442,8.391-8.996,13.033-13.059c4.643-4.924,9.494-9.814,14.947-13.853
			c5.091-3.772,26.589-15.059,32.95-18.265c-33.356-9.466-63.991-27.147-88.937-51.584c-8.107,4.237-17.053,7.069-26.523,8.178
			c0.486,2.568,1.03,5.122,1.622,7.661c7.554,32.424,23.609,62.333,46.508,86.588c1.385-0.977,2.747-2.045,4.094-3.198
			C270.487,375.158,271.255,374.335,272.027,373.506z"/>
		<path style="fill:#D4B783;" d="M361.195,272.665c2.483-7.895,6.412-15.36,10.213-22.58c1.173-2.229,2.329-4.431,3.43-6.615
			c0.073-0.124,1.069-1.834,2.284-4.736c0.211-0.458,0.433-0.918,0.636-1.374c-0.033,0.015-0.066,0.029-0.099,0.044
			c0.572-1.466,1.163-3.159,1.712-5.051c-22.95,8.398-47.194,12.724-71.608,12.724c-10.136,0-20.298-0.753-30.407-2.248
			c-1.868,3.732-4.045,7.28-6.47,10.638c-3.018,4.179-6.43,8.055-10.208,11.547c25.962,24.453,58.375,41.018,93.35,47.789
			c0.97-4.69,1.652-9.702,2.331-14.857C357.461,289.57,358.602,280.91,361.195,272.665z"/>
	</g>
	<g>
		<path d="M416.912,207.196c-0.4-14.906-7.54-28.085-13.877-39.745c-3.652-6.721-7.103-13.067-9.097-19.207
			c-2.123-6.541-3.131-13.953-4.198-21.8c-1.861-13.684-3.802-27.815-12.007-39.628c-0.367-0.636-0.799-1.238-1.303-1.785
			c-8.793-11.487-21.644-17.677-34.093-23.653c-7.091-3.404-13.788-6.619-19.257-10.599c-5.359-3.9-10.412-9.224-15.762-14.86
			c-9.818-10.344-19.97-21.039-34.399-25.724c-0.046-0.015-0.093-0.027-0.138-0.042c-0.069-0.021-0.138-0.042-0.207-0.062
			c-4.979-1.574-10.325-2.346-16.332-2.346c-8.477,0-16.998,1.54-25.239,3.03c-7.93,1.434-15.42,2.787-22.512,2.787
			c-7.093,0-14.582-1.354-22.511-2.787c-8.241-1.489-16.761-3.03-25.238-3.03c-6.146,0-11.602,0.802-16.68,2.451
			c-0.075,0.024-0.145,0.054-0.219,0.078c-0.025,0.009-0.05,0.018-0.075,0.027c-14.269,4.734-24.353,15.347-34.101,25.619
			c-5.35,5.637-10.402,10.96-15.762,14.861c-5.468,3.979-12.166,7.195-19.257,10.599C62.16,67.376,49.267,73.585,40.472,85.144
			c-0.479,0.532-0.906,1.112-1.264,1.742c-8.164,11.799-10.101,25.901-11.958,39.558c-1.066,7.848-2.075,15.26-4.199,21.802
			c-1.993,6.141-5.443,12.487-9.096,19.208C7.6,179.147,0.438,192.365,0.075,207.322c-0.098,0.816-0.104,1.645,0.003,2.472
			c0.399,14.908,7.538,28.088,13.877,39.75c3.652,6.72,7.102,13.066,9.096,19.206c2.123,6.541,3.132,13.953,4.198,21.801
			c1.862,13.688,3.803,27.825,12.017,39.64c0.36,0.621,0.781,1.207,1.271,1.742c8.793,11.504,21.653,17.7,34.113,23.68
			c7.091,3.404,13.787,6.619,19.256,10.599c5.359,3.9,10.412,9.225,15.762,14.861c9.753,10.276,19.841,20.894,34.12,25.625
			c0.017,0.006,0.034,0.012,0.05,0.018c0.076,0.025,0.148,0.055,0.224,0.08c5.078,1.649,10.533,2.45,16.679,2.45
			c8.476,0,16.996-1.541,25.236-3.03c7.93-1.434,15.42-2.787,22.513-2.787c7.093,0,14.582,1.354,22.511,2.787
			c8.241,1.49,16.763,3.03,25.24,3.03c6.116,0,11.547-0.795,16.603-2.428c0.013-0.004,0.027-0.008,0.04-0.012
			c0.011-0.004,0.023-0.007,0.034-0.01c14.428-4.685,24.579-15.38,34.397-25.723c5.35-5.637,10.402-10.96,15.762-14.86
			c5.469-3.979,12.166-7.194,19.258-10.598c12.464-5.983,25.329-12.18,34.124-23.692c0.494-0.538,0.925-1.136,1.294-1.776
			c8.187-11.806,10.128-25.924,11.987-39.596c1.066-7.847,2.075-15.259,4.198-21.799c1.994-6.14,5.444-12.486,9.096-19.206
			c6.357-11.695,13.521-24.916,13.883-39.877C417.014,208.852,417.02,208.023,416.912,207.196z M242.472,254.197
			c-9.493,7.075-21.253,11.27-33.976,11.27c-31.414,0-56.971-25.557-56.971-56.971c0-13.467,4.707-25.849,12.548-35.611
			c10.45-13.01,26.475-21.36,44.423-21.36c31.414,0,56.971,25.557,56.971,56.971C265.466,227.187,256.417,243.802,242.472,254.197z
			 M42.074,262.574c-2.562-7.895-6.621-15.361-10.546-22.582c-3.997-7.353-7.835-14.431-9.904-21.449
			c-0.439-1.488-0.802-2.973-1.066-4.457c34.471-18.378,73.812-25.578,112.456-20.649c-0.971,4.872-1.489,9.905-1.489,15.058
			c0,4.331,0.378,8.574,1.069,12.712c-3.725,1.946-7.399,4-10.991,6.154c-0.986,0.591-1.968,1.186-2.941,1.793
			c-2.438,1.522-3.983,3.923-4.503,6.536c-0.479,2.408-0.088,4.995,1.315,7.243c1.897,3.038,5.158,4.706,8.493,4.706
			c1.808,0,3.639-0.49,5.285-1.518c3.048-1.902,6.169-3.727,9.342-5.464c3.934,8.516,9.37,16.197,15.98,22.695
			c-17.52,35.271-24.641,74.767-20.669,113.794c-3.252-3.023-6.456-6.394-9.729-9.843c-0.592-0.624-1.188-1.251-1.785-1.877
			c-5.184-5.441-10.582-10.924-16.715-15.387c-6.94-5.05-14.784-8.815-22.369-12.457c-8.972-4.306-17.54-8.419-23.565-14.116
			c8.618-17.768,19.743-33.793,33.222-47.86c1.885-1.967,3.824-3.889,5.801-5.779c2.678-2.56,5.429-5.058,8.273-7.474
			c1.653-1.404,2.727-3.232,3.216-5.188c0.756-3.023,0.102-6.352-2.07-8.908c-1.205-1.418-2.723-2.406-4.364-2.97
			c-3.228-1.109-6.94-0.547-9.732,1.824c-5.281,4.486-10.296,9.206-15.056,14.137c-11.557,11.974-21.569,25.231-29.946,39.672
			c-0.311-1.607-0.586-3.258-0.848-4.928c-0.417-2.658-0.794-5.376-1.17-8.137C45.929,279.48,44.752,270.82,42.074,262.574z
			 M42.073,154.421c2.678-8.246,3.856-16.907,4.994-25.283c0.728-5.354,1.452-10.563,2.517-15.407
			c0.886-4.031,2.005-7.814,3.597-11.178c38.699,5.397,74.766,22.706,103.133,49.425c-6.814,6.296-12.484,13.807-16.677,22.183
			c-1.325-0.196-2.65-0.376-3.977-0.546c-37.699-4.831-75.997,0.768-110.676,16.085c1.913-4.167,4.199-8.383,6.543-12.696
			C35.452,169.783,39.51,162.316,42.073,154.421z M182.423,30.457c8.447,1.527,17.183,3.107,26.068,3.107
			c8.885,0,17.621-1.579,26.069-3.107c7.713-1.393,14.998-2.711,21.682-2.711c1.787,0,3.443,0.111,5.017,0.304
			c0.819,4.617,1.458,9.251,1.929,13.893c3.45,34.026-2.418,68.445-17.06,99.447c-1.638-0.922-3.322-1.771-5.03-2.575
			c-6.623-3.115-13.747-5.331-21.233-6.444c-4.101-24.384-12.381-47.564-24.691-69.003c-2.749-4.789-8.862-6.442-13.652-3.692
			c-3.251,1.866-5.05,5.282-5.016,8.781c0.016,1.657,0.44,3.332,1.324,4.871c10.512,18.307,17.772,38.024,21.669,58.741
			c-4.129,0.483-8.15,1.312-12.053,2.424c-5.052,1.439-9.902,3.364-14.476,5.755c-26.454-25.916-59.306-44.237-95.016-53.215
			c-2.215-0.557-4.441-1.082-6.677-1.566c3.779-2.095,7.858-4.054,12.026-6.055c7.586-3.642,15.431-7.407,22.371-12.459
			c1.724-1.254,3.389-2.59,5.008-3.983c4.805-4.131,9.202-8.763,13.491-13.281c0.799-0.841,1.592-1.677,2.384-2.505
			c6.059-6.338,11.975-12.182,18.522-15.725c6.134,5.903,11.88,12.208,17.119,18.817c1.871,2.359,4.592,3.634,7.381,3.763
			c0.155,0.007,0.308,0.025,0.463,0.025c2.176,0,4.367-0.707,6.205-2.163c3.098-2.456,4.34-6.374,3.544-9.991
			c-0.316-1.437-0.944-2.827-1.919-4.057c-1.725-2.176-3.517-4.308-5.338-6.421c-0.869-1.008-1.732-2.021-2.621-3.015
			C173.932,28.93,178.107,29.677,182.423,30.457z M234.56,386.535c-3.006-0.543-6.05-1.091-9.123-1.574
			c-5.562-0.875-11.222-1.533-16.946-1.533c-8.886,0-17.622,1.579-26.07,3.107c-7.712,1.393-14.997,2.711-21.68,2.711
			c-1.784,0-3.436-0.111-5.008-0.303c-6.017-33.921-2.589-68.756,9.714-100.675c1.631-4.231,3.413-8.411,5.354-12.531
			c0.021-0.045,0.041-0.09,0.062-0.134c0.326,0.184,0.663,0.351,0.993,0.53c7.728,4.204,16.237,7.145,25.269,8.489
			c3.642,21.538,10.642,42.245,20.613,61.408c6.046,11.618,13.188,22.665,21.339,32.985c0.014,0.017,0.027,0.035,0.041,0.052
			c2.563,3.243,5.22,6.419,7.981,9.514C243.072,388.065,238.886,387.316,234.56,386.535z M333.68,337.584
			c-1.689,0.811-3.39,1.63-5.092,2.466c-5.942,2.918-11.883,6.065-17.278,9.991c-5.642,4.106-10.66,9.076-15.464,14.081
			c-1.02,1.062-2.033,2.125-3.037,3.183c-4.308,4.54-8.495,8.95-12.833,12.598c-2.614,2.199-5.282,4.121-8.064,5.627
			c-2.151-2.072-4.242-4.195-6.285-6.359c-22.899-24.255-38.955-54.163-46.508-86.588c-0.592-2.539-1.135-5.092-1.622-7.661
			c9.47-1.109,18.416-3.941,26.523-8.178c24.946,24.438,55.581,42.119,88.937,51.584c4.212,1.195,8.464,2.267,12.757,3.197
			C341.933,333.622,337.851,335.582,333.68,337.584z M385.462,239.995c-3.925,7.22-7.982,14.686-10.546,22.58
			c-2.678,8.245-3.855,16.905-4.995,25.28c-1.333,9.809-2.608,19.175-6.113,26.582c-2.293-0.32-4.576-0.685-6.849-1.087
			c-0.98-0.174-1.956-0.358-2.932-0.547c-34.975-6.772-67.388-23.336-93.35-47.789c3.779-3.492,7.19-7.368,10.208-11.547
			c2.425-3.358,4.602-6.906,6.47-10.638c10.109,1.494,20.271,2.248,30.407,2.248c24.414,0,48.659-4.326,71.608-12.724
			c4.262-1.559,8.484-3.243,12.648-5.083C390.103,231.445,387.812,235.672,385.462,239.995z M384.92,208.539
			c-31.581,14.169-66.536,19.403-100.942,15.015c0.97-4.872,1.489-9.905,1.489-15.058c0-2.973-0.19-5.901-0.525-8.786
			c-0.153-1.316-0.326-2.625-0.543-3.92c6.814-3.56,13.442-7.496,19.819-11.774c2.273-1.525,4.516-3.091,6.721-4.702
			c2.075-1.516,3.384-3.684,3.875-6.016c0.563-2.679,0.042-5.575-1.699-7.959c-1.736-2.374-4.322-3.748-7.034-4.033
			c-2.38-0.25-4.856,0.336-6.941,1.857c-6.6,4.822-13.551,9.22-20.747,13.159c-3.934-8.511-9.368-16.188-15.975-22.684
			c14.258-28.704,21.628-60.207,21.737-91.977c0.025-7.266-0.328-14.546-1.067-21.81c3.25,3.021,6.452,6.39,9.723,9.837
			c5.733,6.041,11.662,12.287,18.501,17.264c6.94,5.051,14.784,8.815,22.369,12.457c8.973,4.307,17.541,8.42,23.566,14.116
			c-2.124,4.375-4.413,8.644-6.845,12.813c-8.522,14.609-18.913,27.934-31.063,39.762c-3.957,3.853-4.042,10.184-0.191,14.142
			c1.961,2.014,4.562,3.024,7.167,3.024c1.6,0,3.199-0.385,4.653-1.15c0.831-0.437,1.615-0.996,2.322-1.684
			c9.284-9.038,17.616-18.879,25.004-29.412c3.4-4.848,6.619-9.828,9.605-14.969c0.809,4.171,1.41,8.582,2.023,13.086
			c1.138,8.375,2.316,17.035,4.994,25.282c2.564,7.894,6.621,15.36,10.546,22.581c4.844,8.912,9.462,17.418,10.97,25.904
			C392.652,204.921,388.81,206.794,384.92,208.539z"/>
	</g>
</g>
<g>
</g>
<g>
</g>
<g>
</g>
<g>
</g>
<g>
</g>
<g>
</g>
<g>
</g>
<g>
</g>
<g>
</g>
<g>
</g>
<g>
</g>
<g>
</g>
<g>
</g>
<g>
</g>
<g>
</g>
</svg>
