<?xml version="1.0" encoding="iso-8859-1"?>
<!-- Generator: Adobe Illustrator 19.1.0, SVG Export Plug-In . SVG Version: 6.00 Build 0)  -->
<svg version="1.1" id="Capa_1" xmlns="http://www.w3.org/2000/svg" xmlns:xlink="http://www.w3.org/1999/xlink" x="0px" y="0px"
	 viewBox="0 0 417.007 417.007" style="enable-background:new 0 0 417.007 417.007;" xml:space="preserve">
<g>
	<g>
		<path style="fill:#F24646;" d="M189.568,172.121c-4.208,0-7.803-2.603-9.279-6.284c-0.461-1.15-0.721-2.401-0.721-3.716
			c0-5.523,4.477-10,10-10h163.634c-10.496-43.998-49.66-77.001-96.574-78.073l-153.232,78.073h0.254h45.919c5.523,0,10,4.477,10,10
			c0,5.022-3.706,9.167-8.53,9.88c-0.481,0.071-0.969,0.12-1.47,0.12H53.226v10.866c3.538,0.636,6.643,1.592,9.427,2.73
			c5.764,2.357,10.135,5.511,13.993,8.312c6.47,4.697,11.144,8.092,21.668,8.092c10.525,0,15.2-3.395,21.67-8.092
			c3.855-2.799,8.222-5.951,13.973-8.312c4.234-1.738,9.232-3.036,15.343-3.446c1.321-0.089,2.675-0.151,4.104-0.151
			c17.021,0,26.114,6.602,33.421,11.908c6.47,4.697,11.145,8.092,21.67,8.092c10.525,0,15.199-3.395,21.67-8.092
			c3.855-2.799,8.221-5.951,13.973-8.312c5.15-2.114,11.407-3.596,19.447-3.596c8.043,0,14.302,1.482,19.454,3.596
			c5.752,2.36,10.12,5.51,13.975,8.308c3.299,2.395,6.148,4.462,9.565,5.906c3.699,1.565,6.103,5.192,6.103,9.21v46.571
			c0,2.678,1.764,4.951,4.191,5.72c0.571,0.181,1.179,0.28,1.809,0.28c3.309,0,6-2.691,6-6v-42.987v-3.585
			c0-4.018,2.404-7.645,6.104-9.21c3.416-1.444,6.266-3.512,9.564-5.906c3.859-2.8,8.232-5.952,13.996-8.308l-0.463-13.596H189.568z
			"/>
		<path style="fill:#FDFFD0;" d="M344.683,220.744v1.917v33.051c0,7.683-3.352,14.596-8.667,19.359
			c-1.187,1.064-2.474,2.019-3.842,2.853c-0.402,0.482-0.85,0.717-1.342,0.761c-3.628,1.928-7.761,3.027-12.148,3.027
			c-14.336,0-26-11.663-26-26v-12.876v-27.6c-2.759-1.646-5.175-3.399-7.413-5.023c-6.476-4.698-11.153-8.093-21.685-8.093
			c-1.948,0-3.694,0.118-5.29,0.337c-1.832,0.87-3.761,1.437-5.805,1.437h0c-3.864,1.446-6.935,3.676-10.575,6.318
			c-7.307,5.306-16.4,11.908-33.42,11.908c-17.02,0-26.114-6.603-33.421-11.908c-6.47-4.697-11.145-8.092-21.67-8.092
			c-10.525,0-15.2,3.395-21.669,8.092c-7.307,5.306-16.4,11.908-33.421,11.908c-17.019,0-26.113-6.603-33.419-11.908
			c-3.975-2.886-7.277-5.276-11.669-6.693v16.7v82.554h299.976v-86.522C350.013,217.288,347.4,218.85,344.683,220.744z"/>
		<polygon style="fill:#EDE362;" points="55.417,322.773 56.783,329.622 62.16,356.582 345.188,356.582 351.784,322.773 		"/>
	</g>
	<path d="M407.007,302.773h-23.226V162.121c0-67.103-54.593-121.695-121.696-121.695c-1.58,0-3.138,0.375-4.546,1.093L38.68,153.214
		c-0.033,0.017-0.062,0.036-0.095,0.053c-0.128,0.067-0.252,0.14-0.377,0.213c-0.146,0.085-0.29,0.17-0.43,0.261
		c-0.107,0.07-0.211,0.142-0.316,0.216c-0.153,0.108-0.302,0.219-0.448,0.335c-0.088,0.07-0.175,0.14-0.26,0.212
		c-0.156,0.133-0.306,0.27-0.452,0.411c-0.071,0.068-0.142,0.134-0.211,0.204c-0.159,0.162-0.31,0.331-0.457,0.503
		c-0.05,0.058-0.103,0.114-0.152,0.173c-0.19,0.233-0.371,0.473-0.539,0.721c-0.036,0.053-0.066,0.11-0.101,0.163
		c-0.126,0.194-0.247,0.389-0.359,0.591c-0.065,0.117-0.123,0.239-0.184,0.359c-0.073,0.145-0.145,0.289-0.211,0.438
		c-0.059,0.134-0.114,0.27-0.167,0.407c-0.057,0.145-0.111,0.291-0.161,0.439c-0.046,0.137-0.091,0.273-0.131,0.412
		c-0.049,0.169-0.091,0.34-0.132,0.512c-0.028,0.12-0.059,0.238-0.083,0.36c-0.119,0.607-0.182,1.229-0.186,1.856
		c0,0.022-0.003,0.044-0.003,0.067v140.652H10c-5.523,0-10,4.478-10,10c0,5.522,4.477,10,10,10h25.023l9.128,45.765
		c0.933,4.677,5.038,8.044,9.807,8.044h309.092c4.769,0,8.874-3.367,9.807-8.044l9.128-45.765h25.023c5.522,0,10-4.478,10-10
		C417.007,307.251,412.53,302.773,407.007,302.773z M354.847,356.582h-6.443h-3.216H62.16l-5.377-26.959l-1.366-6.849h296.367h9.807
		L354.847,356.582z M363.782,302.773h-7.809h-2.771H53.226v-82.554v-16.7c4.392,1.417,7.694,3.807,11.669,6.693
		c7.307,5.306,16.4,11.908,33.419,11.908c17.02,0,26.114-6.603,33.421-11.908c6.47-4.697,11.144-8.092,21.669-8.092
		c10.525,0,15.2,3.395,21.67,8.092c7.307,5.306,16.401,11.908,33.421,11.908c17.02,0,26.113-6.603,33.42-11.908
		c3.64-2.642,6.711-4.872,10.575-6.318c1.734-0.649,3.629-1.138,5.805-1.437c1.596-0.219,3.342-0.337,5.29-0.337
		c10.531,0,15.209,3.395,21.685,8.093c2.238,1.624,4.654,3.377,7.413,5.023v27.6v12.876c0,14.337,11.664,26,26,26
		c4.388,0,8.52-1.099,12.148-3.027c0.455-0.242,0.904-0.493,1.342-0.761c1.368-0.834,2.655-1.789,3.842-2.853
		c5.315-4.764,8.667-11.676,8.667-19.359v-33.051v-1.917v-5.507c2.759-1.646,5.175-3.399,7.413-5.023
		c3.98-2.888,7.287-5.279,11.685-6.696V302.773z M363.782,182.986c-3.541,0.636-6.648,1.592-9.435,2.731
		c-5.764,2.356-10.137,5.508-13.996,8.308c-3.299,2.395-6.148,4.462-9.564,5.906c-3.699,1.565-6.104,5.192-6.104,9.21v3.585v42.987
		c0,3.309-2.691,6-6,6c-0.63,0-1.238-0.099-1.809-0.28c-2.427-0.769-4.191-3.042-4.191-5.72v-46.571c0-4.018-2.404-7.645-6.103-9.21
		c-3.416-1.444-6.266-3.512-9.565-5.906c-3.856-2.798-8.224-5.948-13.975-8.308c-5.152-2.114-11.411-3.596-19.454-3.596
		c-8.041,0-14.298,1.482-19.447,3.596c-5.751,2.361-10.118,5.513-13.973,8.312c-6.471,4.697-11.144,8.092-21.67,8.092
		c-10.525,0-15.2-3.395-21.67-8.092c-7.307-5.306-16.401-11.908-33.421-11.908c-1.429,0-2.783,0.062-4.104,0.151
		c-6.111,0.409-11.109,1.707-15.343,3.446c-5.751,2.361-10.118,5.513-13.973,8.312c-6.47,4.697-11.145,8.092-21.67,8.092
		c-10.524,0-15.199-3.395-21.668-8.092c-3.858-2.801-8.229-5.955-13.993-8.312c-2.785-1.139-5.889-2.095-9.427-2.73v-10.866h96.343
		c0.501,0,0.989-0.049,1.47-0.12c4.824-0.713,8.53-4.858,8.53-9.88c0-5.523-4.477-10-10-10H103.65h-0.254H84.818l179.619-91.669
		c51.636,1.18,93.892,41.039,98.857,91.669h-10.093H189.568c-5.523,0-10,4.477-10,10c0,1.314,0.26,2.566,0.721,3.716
		c1.476,3.681,5.07,6.284,9.279,6.284h164.315h9.898V182.986z"/>
</g>
<g>
</g>
<g>
</g>
<g>
</g>
<g>
</g>
<g>
</g>
<g>
</g>
<g>
</g>
<g>
</g>
<g>
</g>
<g>
</g>
<g>
</g>
<g>
</g>
<g>
</g>
<g>
</g>
<g>
</g>
</svg>
