<?xml version="1.0" encoding="iso-8859-1"?>
<!-- Generator: Adobe Illustrator 19.1.0, SVG Export Plug-In . SVG Version: 6.00 Build 0)  -->
<svg version="1.1" id="Capa_1" xmlns="http://www.w3.org/2000/svg" xmlns:xlink="http://www.w3.org/1999/xlink" x="0px" y="0px"
	 viewBox="0 0 365.123 365.123" style="enable-background:new 0 0 365.123 365.123;" xml:space="preserve">
<g>
	<g>
		<path style="fill:#F24646;" d="M90.879,103.349c-2.177,45.362,14.714,89.351,46.929,121.565
			c28.495,28.495,66.206,44.989,105.93,46.914L322.362,28.55L90.879,103.349z M164.422,137.886c-6.577,0-12.096-4.717-13.124-11.214
			c-1.147-7.233,3.807-14.056,11.044-15.205c0.737-0.117,1.519-0.169,2.54-0.169c3.942,0,14.191,0.865,15.347,0.964
			c4.582,0.392,8.307,3.857,9.026,8.399c0.719,4.543-1.752,8.99-5.989,10.778c-13.765,5.808-15.715,6.116-16.763,6.282
			C165.816,137.83,165.116,137.886,164.422,137.886z M208.568,167.881c-7.722,12.789-9.118,14.185-9.868,14.935
			c-2.508,2.51-5.847,3.894-9.398,3.894c-3.551,0-6.889-1.384-9.4-3.895c-2.509-2.509-3.892-5.847-3.892-9.396
			c0-3.55,1.382-6.888,3.893-9.399c0.751-0.751,2.147-2.145,14.936-9.867c3.937-2.378,8.988-1.762,12.24,1.489
			C210.331,158.893,210.945,163.944,208.568,167.881z M238.129,211.586c-0.694,0-1.395-0.056-2.082-0.164
			c-3.507-0.555-6.588-2.443-8.675-5.316c-2.086-2.872-2.93-6.384-2.374-9.89c0.166-1.05,0.476-2.999,6.283-16.763
			c1.788-4.237,6.231-6.705,10.778-5.989c4.542,0.72,8.008,4.444,8.399,9.026c1.271,14.887,0.961,16.837,0.795,17.885
			C250.225,206.869,244.705,211.586,238.129,211.586z"/>
		<path style="fill:#00CE89;" d="M236.449,291.404c-42.328-3.531-82.256-21.819-112.784-52.347
			c-34.446-34.445-53.321-80.858-52.982-129.182l-25.045,8.093c3.55,102.412,82.057,186.106,182.226,197.822l6.638-17.779
			C235.406,295.274,236.033,293.111,236.449,291.404z"/>
		<path style="fill:#D4B783;" d="M82.577,261.027l-55.256,55.256c-6.591,6.591-6.591,17.315,0,23.906
			c6.591,6.592,17.316,6.592,23.906,0l55.607-55.607c-5.164-4.327-10.173-8.89-14.994-13.711
			C88.641,267.671,85.561,264.382,82.577,261.027z"/>
	</g>
	<g>
		<path d="M360.046,5.638C357.439,2.055,353.24,0,348.526,0c-1.893,0-3.865,0.327-5.861,0.972L32.438,101.215
			c-4.128,1.334-6.925,5.178-6.925,9.516c0,49.173,15.565,95.953,44.363,134.713l-56.697,56.697
			c-14.389,14.39-14.389,37.802,0,52.191c7.194,7.194,16.645,10.791,26.095,10.791c9.451,0,18.901-3.597,26.096-10.791
			l57.485-57.485c37.633,26.228,82.294,40.359,129.133,40.359c4.338,0,8.181-2.797,9.515-6.925l14.797-45.784
			c0.013-0.039,0.025-0.077,0.037-0.116l85.423-264.313C363.504,14.677,362.895,9.552,360.046,5.638z M51.228,340.189
			c-6.59,6.592-17.315,6.592-23.906,0c-6.591-6.591-6.591-17.315,0-23.906l55.256-55.256c2.984,3.355,6.063,6.644,9.264,9.845
			c4.821,4.821,9.83,9.384,14.994,13.711L51.228,340.189z M244.752,317.081c-5.691-0.197-11.321-0.64-16.888-1.291
			C127.695,304.074,49.188,220.38,45.638,117.968l25.045-8.093c-0.339,48.323,18.536,94.736,52.982,129.182
			c30.528,30.529,70.456,48.816,112.784,52.347c5.011,0.418,10.053,0.642,15.12,0.642c0.426,0,0.853-0.011,1.279-0.014
			L244.752,317.081z M259.372,271.843c-5.236,0.251-10.451,0.237-15.634-0.015c-39.724-1.925-77.435-18.419-105.93-46.914
			c-32.215-32.214-49.106-76.203-46.929-121.565L322.362,28.55l17.463-5.643L259.372,271.843z"/>
		<path d="M194.839,154.151c-12.789,7.722-14.185,9.116-14.936,9.867c-2.511,2.511-3.893,5.849-3.893,9.399
			c0,3.55,1.382,6.888,3.892,9.396c2.511,2.512,5.849,3.895,9.4,3.895c3.552,0,6.89-1.384,9.398-3.894
			c0.749-0.75,2.146-2.145,9.868-14.935c2.377-3.936,1.763-8.987-1.489-12.24C203.827,152.39,198.776,151.773,194.839,154.151z"/>
		<path d="M250.457,182.49c-0.391-4.582-3.857-8.307-8.399-9.026c-4.546-0.716-8.99,1.752-10.778,5.989
			c-5.807,13.764-6.116,15.713-6.283,16.763c-0.555,3.506,0.288,7.018,2.374,9.89c2.087,2.873,5.167,4.762,8.675,5.316
			c0.688,0.108,1.388,0.164,2.082,0.164c6.577,0,12.096-4.717,13.124-11.211C251.419,199.327,251.728,197.377,250.457,182.49z"/>
		<path d="M189.256,120.661c-0.72-4.542-4.444-8.008-9.026-8.399c-1.156-0.099-11.405-0.964-15.347-0.964
			c-1.021,0-1.803,0.052-2.54,0.169c-7.237,1.149-12.192,7.972-11.044,15.205c1.028,6.497,6.547,11.214,13.124,11.214
			c0.694,0,1.395-0.056,2.082-0.164c1.048-0.166,2.998-0.475,16.763-6.282C187.504,129.651,189.975,125.204,189.256,120.661z"/>
	</g>
</g>
<g>
</g>
<g>
</g>
<g>
</g>
<g>
</g>
<g>
</g>
<g>
</g>
<g>
</g>
<g>
</g>
<g>
</g>
<g>
</g>
<g>
</g>
<g>
</g>
<g>
</g>
<g>
</g>
<g>
</g>
</svg>
