<?xml version="1.0" encoding="iso-8859-1"?>
<!-- Generator: Adobe Illustrator 19.1.0, SVG Export Plug-In . SVG Version: 6.00 Build 0)  -->
<svg version="1.1" id="Capa_1" xmlns="http://www.w3.org/2000/svg" xmlns:xlink="http://www.w3.org/1999/xlink" x="0px" y="0px"
	 viewBox="0 0 439.551 439.551" style="enable-background:new 0 0 439.551 439.551;" xml:space="preserve">
<g>
	<g>
		<path style="fill:#D4B783;" d="M193.943,222.4c0,0,5.583-12.278,10.581-21.178c-7.211-14.4-14.844-27.014-22.755-37.678
			c-1.67,3.127-3.319,6.3-4.928,9.53c-1.634,3.281-3.231,6.637-4.804,10.037c-10.82,23.386-20.174,49.457-27.589,76.48
			c-0.049,0.182-0.099,0.365-0.148,0.546c-0.282,1.032-0.555,2.069-0.831,3.104c-0.469,1.767-0.928,3.512-1.365,5.212
			c-0.047,0.182-0.093,0.365-0.14,0.547c-0.406,1.585-0.794,3.129-1.17,4.647c-0.407,1.651-0.813,3.303-1.205,4.959
			c-0.027,0.12-0.055,0.24-0.086,0.359c-6.21,26.285-10.533,53.061-12.546,78.785c-0.466,5.942,1.411,11.709,5.283,16.24
			c3.873,4.53,9.278,7.281,15.22,7.746c0.585,0.046,1.182,0.069,1.776,0.069c1.831,0,3.608-0.25,5.32-0.678
			c1.094-2.345,1.807-4.903,2.019-7.607C160.544,322.793,174.116,268.001,193.943,222.4z M186.735,201.063
			c4.842,2.657,6.613,8.735,3.956,13.578l-0.249,0.453l-1.909,3.479c-1.818,3.316-5.243,5.191-8.775,5.191
			c-1.626,0-3.275-0.397-4.802-1.235c-4.842-2.657-6.613-8.735-3.956-13.578l2.157-3.932c1.895-3.455,5.533-5.335,9.22-5.17
			C183.859,199.915,185.348,200.302,186.735,201.063z M155.886,259.112c-0.011-5.523,4.458-10.009,9.98-10.02
			c0.006,0,0.014,0,0.02,0c5.515,0,9.989,4.464,10,9.981l0.009,4.484c0.011,5.523-4.458,10.009-9.98,10.02c-0.006,0-0.014,0-0.02,0
			c-5.515,0-9.989-4.464-10-9.98L155.886,259.112z"/>
		<path style="fill:#D4B783;" d="M231.706,358.899c5.376-0.281,10.728-0.729,16.012-1.391c-0.963-10.523-2.36-21.213-4.139-31.935
			c-11.746,0.693-32.812,1.338-38.672,1.338c-3.056,0-6.097-0.095-9.124-0.247c-1.687,10.352-3.019,20.672-3.948,30.844
			C204.918,359.146,218.394,359.595,231.706,358.899z"/>
		<path style="fill:#D4B783;" d="M297.725,370.037c-1.557-19.895-4.51-40.418-8.635-60.858c-1.767,1.396-3.959,2.164-6.207,2.164
			c-1.499,0-3.021-0.338-4.452-1.052c-4.943-2.463-6.953-8.468-4.49-13.411l2-4.013c1.643-3.297,4.863-5.278,8.29-5.509
			c-4.132-16.946-9.04-33.651-14.618-49.707c-1.386,3.908-5.114,6.655-9.413,6.655c-0.197,0-0.396-0.006-0.595-0.018
			c-5.514-0.324-9.721-5.055-9.397-10.569l0.263-4.477c0.323-5.513,5.073-9.713,10.568-9.397c0.744,0.044,1.461,0.173,2.149,0.369
			c-4.751-12.178-9.88-23.87-15.349-34.853c-3.726-7.482-7.579-14.618-11.553-21.406c-1.674,1.136-3.635,1.734-5.618,1.734
			c-2.107,0-4.23-0.663-6.037-2.034l-3.572-2.71c-4.399-3.338-5.26-9.611-1.922-14.011c1.13-1.489,2.6-2.562,4.216-3.215
			c-7.976-11.425-16.357-21.586-25.105-30.429c-0.023,0.021-0.042,0.043-0.065,0.064l-3.364,2.965
			c-1.9,1.675-4.259,2.498-6.607,2.498c-2.771,0-5.529-1.146-7.506-3.388c-3.652-4.144-3.253-10.463,0.891-14.114l1.744-1.537
			c-7.757-6.26-15.758-11.561-23.978-15.878l0.458,0.9c2.504,4.922,0.543,10.943-4.379,13.447c-1.453,0.739-3.001,1.089-4.526,1.089
			c-3.643,0-7.155-1.998-8.921-5.468l-2.033-3.997c-2.36-4.638-0.752-10.249,3.559-12.976c-7.654-2.764-15.471-4.718-23.434-5.838
			c-24.492-3.45-48.118,2.008-67.678,15.157c-1.613,1.621-3.187,3.301-4.71,5.053c-27.191,31.26-34.791,77.104-20.854,125.777
			c12.208,42.634,37.136,78.628,71.362,103.762c3.804,2.793,7.717,5.459,11.747,7.978c2.156-16.046,5.087-32.285,8.715-48.395
			c-23.308-19.043-40.166-45.051-48.921-75.63c-9.368-32.716-5.724-62.456,9.929-82.147c0.296-0.713,0.714-1.266,1.304-1.594
			c0.131-0.154,0.256-0.313,0.389-0.466c11.58-13.313,27.446-19.59,44.89-17.87c0.804,0.07,1.625,0.157,2.481,0.277
			c20.06,2.823,39.867,15.046,58.173,35.45c0.559,0.503,1.046,1.064,1.469,1.664c12.285,14.05,23.875,31.793,34.382,52.893
			c15.561,31.251,28.171,68.816,36.319,107.051c0.02,0.097,0.049,0.191,0.067,0.289c0.003,0.015,0.003,0.03,0.006,0.046
			c4.331,20.392,7.394,40.971,8.952,60.881c0.902,11.536,10.658,20.573,22.209,20.573c0.595,0,1.191-0.023,1.773-0.069
			c1.246-0.098,2.457-0.301,3.632-0.592C297.284,377.782,298.034,373.989,297.725,370.037z M56.104,163.501l-0.622,4.441
			c-0.475,3.392-2.602,6.143-5.452,7.563c-1.35,0.673-2.861,1.051-4.438,1.051c-0.462,0-0.93-0.032-1.4-0.098
			c-5.469-0.766-9.282-5.821-8.516-11.291l0.622-4.441c0.766-5.469,5.819-9.281,11.291-8.516c2.531,0.354,4.698,1.634,6.23,3.442
			C55.598,157.751,56.516,160.563,56.104,163.501z M92.379,94.476l-4.347,1.104c-0.826,0.21-1.655,0.311-2.47,0.311
			c-4.466,0-8.535-3.013-9.686-7.54c-1.359-5.353,1.877-10.795,7.229-12.155l4.347-1.104c5.354-1.36,10.795,1.877,12.155,7.229
			C100.968,87.674,97.731,93.116,92.379,94.476z"/>
		<path style="fill:#D4B783;" d="M397.837,229.329c9.17-32.025,9.013-62.824,0.09-89.051c-1.043,4.573-5.118,7.772-9.728,7.772
			c-0.529,0-1.065-0.042-1.605-0.129c-5.452-0.88-9.159-6.014-8.278-11.466l0.715-4.427c0.88-5.452,6.007-9.16,11.466-8.278
			c0.117,0.019,0.228,0.05,0.343,0.073c-3.84-7.268-8.454-14.06-13.854-20.269c-11.394-13.101-25.396-22.584-40.874-28.052
			c0.79,2.019,0.94,4.304,0.262,6.539c-1.31,4.317-5.276,7.1-9.565,7.1c-0.962,0-1.939-0.14-2.907-0.433l-4.291-1.302
			c-5.285-1.604-8.27-7.188-6.666-12.472c0.501-1.652,1.391-3.079,2.539-4.212c-8.38-0.983-17.013-0.897-25.758,0.333
			c-19.491,2.743-38.13,10.464-55.679,22.98c9.481,10.463,18.498,22.343,27.012,35.574c15.963-15.278,32.654-24.245,49.756-26.652
			c18.423-2.591,35.246,3.655,47.37,17.594c17.084,19.643,21.32,50.334,11.622,84.205c-8.755,30.579-25.613,56.588-48.922,75.631
			c3.628,16.11,6.559,32.349,8.715,48.395c4.38-2.738,8.621-5.652,12.735-8.714C368.429,296.145,387.602,265.071,397.837,229.329z
			 M282.893,97.738l-3.5,2.804c-1.845,1.478-4.053,2.196-6.246,2.196c-2.931,0-5.835-1.283-7.811-3.749
			c-3.453-4.31-2.758-10.603,1.553-14.057l3.5-2.804c4.31-3.451,10.603-2.758,14.057,1.553
			C287.898,87.992,287.203,94.285,282.893,97.738z"/>
	</g>
	<g>
		<path d="M406.945,78.142c-26.58-30.561-64.908-44.838-105.139-39.178c-29.489,4.15-57.045,17.836-82.041,40.708
			c-24.861-22.741-52.45-36.546-82.021-40.708C97.507,33.298,59.189,47.575,32.607,78.14C0.889,114.605-8.22,167.24,7.617,222.548
			c15.841,55.324,51.188,100.533,99.876,128.021c-0.17,1.878-0.331,3.752-0.477,5.62c-0.882,11.268,2.677,22.205,10.021,30.796
			c7.344,8.591,17.594,13.808,28.859,14.689c1.101,0.086,2.225,0.13,3.339,0.13c16.825,0,31.632-10.099,38.387-24.682
			c10.549,1.405,21.326,2.126,32.154,2.126c10.826,0,21.603-0.721,32.152-2.126c6.755,14.583,21.562,24.682,38.387,24.682
			c1.116,0,2.239-0.044,3.337-0.13c23.259-1.82,40.701-22.225,38.882-45.485c-0.146-1.868-0.307-3.742-0.477-5.62
			c48.688-27.489,84.035-72.698,99.876-128.021C447.77,167.241,438.662,114.607,406.945,78.142z M219.77,236.305
			c6.865,18.203,12.748,37.618,17.413,57.391c-5.707,0.616-11.529,0.929-17.407,0.929c-5.884,0-11.714-0.313-17.428-0.931
			C207,273.969,212.873,254.572,219.77,236.305z M158.937,164.16c-13.995,28.107-25.898,60.582-34.882,94.312
			c-16.397-15.713-28.411-35.919-35.083-59.219c-7.799-27.239-5.07-51.14,7.485-65.576c7.64-8.784,17.84-12.556,29.491-10.914
			c14.062,1.979,28.287,10.358,41.979,24.406C164.851,152.652,161.837,158.337,158.937,164.16z M171.444,361.232
			c-0.759,9.708-7.797,17.622-16.889,19.894c-1.712,0.428-3.49,0.678-5.32,0.678c-0.595,0-1.191-0.023-1.776-0.069
			c-5.941-0.465-11.347-3.216-15.22-7.746c-3.872-4.53-5.749-10.297-5.283-16.24c2.013-25.724,6.336-52.5,12.546-78.785
			c0.031-0.119,0.059-0.239,0.086-0.359c0.392-1.656,0.798-3.308,1.205-4.959c0.383-1.552,0.775-3.1,1.17-4.647
			c0.047-0.182,0.093-0.365,0.14-0.547c0.447-1.741,0.902-3.478,1.365-5.212c0.276-1.035,0.549-2.072,0.831-3.104
			c0.05-0.182,0.098-0.364,0.148-0.546c7.415-27.023,16.769-53.094,27.589-76.48c1.573-3.4,3.17-6.756,4.804-10.037
			c1.608-3.23,3.258-6.403,4.928-9.53c7.911,10.664,15.544,23.278,22.755,37.678c0.111,0.221,0.224,0.434,0.335,0.657
			c1.342,2.695,2.659,5.444,3.954,8.234C188.985,255.714,175.414,310.506,171.444,361.232z M195.782,326.665
			c0.724-4.441,1.506-8.887,2.361-13.331c7.087,0.851,14.327,1.291,21.633,1.291c7.3,0,14.533-0.439,21.613-1.288
			c0.786,4.079,1.513,8.161,2.19,12.238c1.779,10.721,3.176,21.412,4.139,31.935c-5.284,0.662-10.636,1.11-16.012,1.391
			c-13.311,0.696-26.788,0.247-39.871-1.391C192.764,347.337,194.095,337.017,195.782,326.665z M295.721,381.145
			c-1.175,0.291-2.387,0.494-3.632,0.592c-0.582,0.046-1.179,0.069-1.773,0.069c-11.551,0-21.307-9.037-22.209-20.573
			c-1.558-19.91-4.621-40.489-8.952-60.881c-0.003-0.015-0.003-0.03-0.006-0.046c-0.017-0.099-0.047-0.192-0.067-0.289
			c-8.148-38.236-20.758-75.8-36.319-107.051c-10.506-21.099-22.096-38.842-34.382-52.893c-0.423-0.599-0.909-1.161-1.469-1.664
			c-18.306-20.404-38.113-32.627-58.173-35.45c-0.832-0.117-1.656-0.196-2.481-0.277c-17.444-1.72-33.31,4.557-44.89,17.87
			c-0.133,0.153-0.258,0.312-0.389,0.466c-0.445,0.522-0.877,1.056-1.304,1.594c-15.654,19.691-19.297,49.431-9.929,82.147
			c8.755,30.579,25.613,56.587,48.921,75.63c-3.628,16.11-6.559,32.349-8.715,48.395c-4.029-2.519-7.943-5.185-11.747-7.978
			c-34.226-25.134-59.153-61.128-71.362-103.762c-13.937-48.674-6.336-94.518,20.854-125.777c1.523-1.751,3.097-3.431,4.71-5.053
			c21.748-21.856,51.453-31.824,82.547-27.444c27.965,3.936,54.148,18.114,77.706,41.772c0.02,0.02,0.036,0.042,0.057,0.062
			c0.028,0.028,0.06,0.052,0.088,0.079c18.366,18.482,35.133,42.732,49.902,72.393c15.493,31.114,28.322,67.829,37.262,105.569
			c0.022,0.096,0.044,0.191,0.069,0.286c6.214,26.296,10.541,53.084,12.555,78.819C313.457,368.771,306.118,378.571,295.721,381.145
			z M315.495,258.472c-8.984-33.73-20.887-66.204-34.883-94.311c-2.904-5.832-5.895-11.451-8.953-16.9
			c13.805-14.121,28.202-22.564,41.942-24.498c11.652-1.64,21.854,2.134,29.493,10.915c12.555,14.436,15.283,38.337,7.485,65.575
			C343.907,222.553,331.893,242.758,315.495,258.472z M412.707,217.042c-12.09,42.222-36.658,77.928-70.374,103.026
			c-4.113,3.062-8.355,5.976-12.735,8.714c-2.156-16.046-5.087-32.285-8.715-48.395c23.309-19.043,40.167-45.052,48.922-75.631
			c9.698-33.871,5.462-64.562-11.622-84.205c-12.124-13.939-28.947-20.186-47.37-17.594c-17.102,2.407-33.793,11.374-49.756,26.652
			c-8.514-13.231-17.531-25.112-27.012-35.574c-0.052-0.058-0.104-0.118-0.156-0.176c21.802-19.756,45.547-31.551,70.704-35.092
			c33.406-4.7,65.21,7.145,87.261,32.499C419.043,122.526,426.644,168.37,412.707,217.042z"/>
		<path d="M139.961,89.87l2.033,3.997c1.766,3.47,5.277,5.468,8.921,5.468c1.525,0,3.073-0.35,4.526-1.089
			c4.922-2.504,6.883-8.524,4.379-13.447l-0.458-0.9l-1.576-3.097c-2.504-4.923-8.523-6.882-13.447-4.379
			c-0.284,0.145-0.556,0.304-0.82,0.471C139.209,79.621,137.601,85.232,139.961,89.87z"/>
		<path d="M180.706,115.429c1.977,2.243,4.734,3.388,7.506,3.388c2.349,0,4.707-0.823,6.607-2.498l3.364-2.965
			c0.023-0.02,0.043-0.043,0.065-0.064c4.079-3.66,4.457-9.93,0.825-14.05c-3.651-4.143-9.971-4.542-14.113-0.891l-1.62,1.428
			l-1.744,1.537C177.453,104.966,177.054,111.286,180.706,115.429z"/>
		<path d="M319.609,87.406l4.291,1.302c0.968,0.293,1.945,0.433,2.907,0.433c4.289,0,8.256-2.782,9.565-7.1
			c0.678-2.235,0.528-4.521-0.262-6.539c-1.078-2.754-3.354-5.007-6.404-5.933l-4.291-1.302c-3.633-1.103-7.408-0.037-9.934,2.455
			c-1.148,1.133-2.038,2.56-2.539,4.212C311.34,80.219,314.324,85.803,319.609,87.406z"/>
		<path d="M250.471,229.243l-0.263,4.477c-0.324,5.514,3.883,10.245,9.397,10.569c0.199,0.012,0.397,0.018,0.595,0.018
			c4.299,0,8.027-2.747,9.413-6.655c0.308-0.869,0.504-1.794,0.56-2.76l0.263-4.477c0.281-4.77-2.833-8.948-7.247-10.2
			c-0.688-0.195-1.405-0.325-2.149-0.369C255.544,219.53,250.794,223.73,250.471,229.243z"/>
		<path d="M173.158,205.019l-2.157,3.932c-2.657,4.842-0.886,10.921,3.956,13.578c1.526,0.837,3.176,1.235,4.802,1.235
			c3.532,0,6.957-1.876,8.775-5.191l1.909-3.479l0.249-0.453c2.657-4.842,0.886-10.921-3.956-13.578
			c-1.387-0.761-2.876-1.148-4.357-1.214C178.691,199.684,175.053,201.564,173.158,205.019z"/>
		<path d="M87.453,75.092l-4.347,1.104c-5.353,1.36-8.589,6.802-7.229,12.155c1.15,4.526,5.22,7.54,9.686,7.54
			c0.814,0,1.644-0.101,2.47-0.311l4.347-1.104c5.353-1.36,8.589-6.802,7.229-12.155C98.248,76.97,92.808,73.732,87.453,75.092z"/>
		<path d="M379.03,132.028l-0.715,4.427c-0.881,5.452,2.826,10.586,8.278,11.466c0.54,0.087,1.076,0.129,1.605,0.129
			c4.609,0,8.685-3.198,9.728-7.772c0.048-0.21,0.098-0.42,0.133-0.635l0.715-4.427c0.862-5.336-2.674-10.355-7.935-11.393
			c-0.115-0.023-0.226-0.054-0.343-0.073C385.037,122.868,379.91,126.576,379.03,132.028z"/>
		<path d="M47.589,152.211c-5.472-0.765-10.525,3.047-11.291,8.516l-0.622,4.441c-0.767,5.469,3.047,10.524,8.516,11.291
			c0.471,0.066,0.938,0.098,1.4,0.098c1.577,0,3.088-0.378,4.438-1.051c2.85-1.421,4.977-4.172,5.452-7.563l0.622-4.441
			c0.412-2.938-0.507-5.75-2.285-7.849C52.287,153.845,50.119,152.565,47.589,152.211z"/>
		<path d="M275.94,292.868l-2,4.013c-2.463,4.943-0.453,10.947,4.49,13.411c1.432,0.714,2.953,1.052,4.452,1.052
			c2.248,0,4.44-0.769,6.207-2.164c1.12-0.884,2.072-2.016,2.751-3.377l2-4.013c2.463-4.943,0.453-10.947-4.49-13.411
			c-1.646-0.82-3.409-1.134-5.12-1.019C280.803,287.589,277.584,289.571,275.94,292.868z"/>
		<path d="M219.138,146.935c-3.338,4.4-2.477,10.672,1.922,14.011l3.572,2.71c1.808,1.372,3.931,2.034,6.037,2.034
			c1.982,0,3.943-0.598,5.618-1.734c0.877-0.595,1.681-1.33,2.357-2.222c3.338-4.399,2.477-10.672-1.922-14.011l-3.572-2.71
			c-2.911-2.209-6.637-2.569-9.796-1.293C221.738,144.373,220.268,145.446,219.138,146.935z"/>
		<path d="M270.389,82.128l-3.5,2.804c-4.311,3.453-5.006,9.746-1.553,14.057c1.976,2.466,4.88,3.749,7.811,3.749
			c2.193,0,4.401-0.718,6.246-2.196l3.5-2.804c4.311-3.453,5.006-9.746,1.553-14.057C280.991,79.37,274.698,78.677,270.389,82.128z"
			/>
		<path d="M165.894,273.577c0.006,0,0.014,0,0.02,0c5.522-0.011,9.991-4.497,9.98-10.02l-0.009-4.484
			c-0.011-5.517-4.485-9.981-10-9.981c-0.006,0-0.014,0-0.02,0c-5.522,0.011-9.991,4.497-9.98,10.02l0.009,4.484
			C155.905,269.113,160.38,273.577,165.894,273.577z"/>
	</g>
</g>
<g>
</g>
<g>
</g>
<g>
</g>
<g>
</g>
<g>
</g>
<g>
</g>
<g>
</g>
<g>
</g>
<g>
</g>
<g>
</g>
<g>
</g>
<g>
</g>
<g>
</g>
<g>
</g>
<g>
</g>
</svg>
